<svg id="svg" version="1.1" xmlns="http://www.w3.org/2000/svg" xmlns:xlink="http://www.w3.org/1999/xlink" width="400" height="400" viewBox="0, 0, 400,400"><g id="svgg"><path id="path0" d="M232.000 95.544 C 231.670 95.736,230.611 96.013,229.646 96.160 C 228.682 96.307,227.442 96.781,226.892 97.213 C 226.342 97.646,225.708 98.000,225.482 98.000 C 224.747 98.000,221.614 101.744,221.141 103.190 C 220.887 103.965,220.454 104.960,220.179 105.400 C 219.904 105.840,219.548 106.830,219.388 107.600 C 219.228 108.370,218.851 109.355,218.549 109.789 C 218.247 110.223,218.000 110.856,218.000 111.195 C 218.000 111.534,217.640 112.484,217.200 113.304 C 216.760 114.125,216.400 115.115,216.400 115.504 C 216.400 115.894,216.064 116.839,215.653 117.606 C 215.243 118.373,214.770 119.630,214.602 120.400 C 214.435 121.170,214.051 122.155,213.749 122.589 C 213.447 123.023,213.199 123.743,213.198 124.189 C 213.196 124.635,212.908 125.540,212.557 126.200 C 212.206 126.860,211.662 128.247,211.349 129.283 C 211.036 130.318,210.604 131.274,210.390 131.406 C 210.175 131.539,210.000 132.044,210.000 132.530 C 210.000 133.015,209.640 134.084,209.200 134.904 C 208.760 135.725,208.400 136.693,208.400 137.055 C 208.400 137.416,208.065 138.452,207.656 139.356 C 206.912 140.998,206.583 141.866,205.146 145.989 C 204.726 147.193,204.206 148.354,203.991 148.569 C 203.776 148.784,203.600 149.332,203.600 149.786 C 203.600 150.240,203.240 151.284,202.800 152.104 C 202.360 152.925,202.000 153.875,202.000 154.214 C 202.000 154.554,201.640 155.538,201.200 156.400 C 200.760 157.262,200.400 158.293,200.400 158.690 C 200.400 159.087,200.040 160.084,199.600 160.904 C 199.160 161.725,198.800 162.625,198.800 162.904 C 198.800 163.184,198.440 164.084,198.000 164.904 C 197.560 165.725,197.200 166.715,197.200 167.104 C 197.200 167.494,196.840 168.484,196.400 169.304 C 195.960 170.125,195.600 171.115,195.600 171.504 C 195.600 171.894,195.264 172.839,194.853 173.606 C 194.443 174.373,193.970 175.630,193.802 176.400 C 193.635 177.170,193.251 178.155,192.949 178.589 C 192.647 179.023,192.400 179.656,192.400 179.995 C 192.400 180.334,192.040 181.284,191.600 182.104 C 191.160 182.925,190.800 183.915,190.800 184.304 C 190.800 184.694,190.464 185.639,190.053 186.406 C 189.643 187.173,189.169 188.427,189.001 189.194 C 188.833 189.961,188.466 190.951,188.187 191.394 C 187.907 191.837,187.548 192.830,187.388 193.600 C 187.228 194.370,186.851 195.355,186.549 195.789 C 186.247 196.223,186.000 196.860,186.000 197.204 C 186.000 197.549,185.640 198.537,185.200 199.400 C 184.760 200.263,184.400 201.249,184.400 201.591 C 184.400 201.932,184.040 202.884,183.600 203.704 C 183.160 204.525,182.799 205.513,182.798 205.899 C 182.796 206.284,182.513 207.140,182.169 207.800 C 181.526 209.032,180.434 211.960,179.378 215.283 C 179.049 216.318,178.604 217.274,178.390 217.406 C 178.175 217.539,178.000 218.022,178.000 218.480 C 178.000 218.938,177.665 220.052,177.256 220.956 C 176.846 221.860,176.289 223.230,176.017 224.000 C 175.745 224.770,175.080 226.570,174.540 228.000 C 173.999 229.430,173.366 231.229,173.132 231.998 C 172.899 232.767,172.459 233.752,172.154 234.187 C 171.849 234.622,171.600 235.346,171.600 235.795 C 171.600 236.244,171.240 237.284,170.800 238.104 C 170.360 238.925,170.000 239.915,170.000 240.304 C 170.000 240.694,169.640 241.684,169.200 242.504 C 168.760 243.325,168.400 244.225,168.400 244.504 C 168.400 244.784,168.040 245.684,167.600 246.504 C 167.160 247.325,166.800 248.315,166.800 248.704 C 166.800 249.094,166.440 250.084,166.000 250.904 C 165.560 251.725,165.200 252.715,165.200 253.104 C 165.200 253.494,164.864 254.439,164.453 255.206 C 164.043 255.973,163.570 257.230,163.402 258.000 C 163.235 258.770,162.851 259.755,162.549 260.189 C 162.247 260.623,162.000 261.256,162.000 261.595 C 162.000 261.934,161.640 262.884,161.200 263.704 C 160.760 264.525,160.400 265.520,160.400 265.914 C 160.400 266.308,160.040 267.337,159.600 268.200 C 159.160 269.063,158.800 270.049,158.800 270.391 C 158.800 270.732,158.440 271.684,158.000 272.504 C 157.560 273.325,157.200 274.293,157.200 274.655 C 157.200 275.016,156.862 276.052,156.449 276.956 C 153.953 282.422,153.156 287.796,154.543 289.811 C 154.842 290.245,155.300 291.257,155.561 292.060 C 155.822 292.864,156.824 294.304,157.788 295.260 C 163.377 300.811,172.933 300.724,177.791 295.077 C 178.584 294.155,179.475 293.130,179.769 292.800 C 180.064 292.470,180.439 291.570,180.603 290.800 C 180.768 290.030,181.149 289.045,181.451 288.611 C 181.753 288.177,182.000 287.544,182.000 287.205 C 182.000 286.866,182.360 285.916,182.800 285.096 C 183.240 284.275,183.600 283.285,183.600 282.896 C 183.600 282.506,183.936 281.561,184.347 280.794 C 184.757 280.027,185.230 278.770,185.398 278.000 C 185.565 277.230,185.949 276.245,186.251 275.811 C 186.553 275.377,186.801 274.657,186.802 274.211 C 186.804 273.765,187.092 272.860,187.443 272.200 C 187.794 271.540,188.338 270.153,188.651 269.117 C 188.964 268.082,189.396 267.126,189.610 266.994 C 189.825 266.861,190.000 266.356,190.000 265.870 C 190.000 265.385,190.360 264.316,190.800 263.496 C 191.240 262.675,191.600 261.707,191.600 261.345 C 191.600 260.984,191.935 259.948,192.344 259.044 C 193.088 257.402,193.417 256.534,194.854 252.411 C 195.274 251.207,195.794 250.046,196.009 249.831 C 196.224 249.616,196.400 249.068,196.400 248.614 C 196.400 248.160,196.760 247.116,197.200 246.296 C 197.640 245.475,198.000 244.525,198.000 244.186 C 198.000 243.846,198.360 242.862,198.800 242.000 C 199.240 241.138,199.600 240.107,199.600 239.710 C 199.600 239.313,199.960 238.316,200.400 237.496 C 200.840 236.675,201.200 235.775,201.200 235.496 C 201.200 235.216,201.560 234.316,202.000 233.496 C 202.440 232.675,202.800 231.685,202.800 231.296 C 202.800 230.906,203.160 229.916,203.600 229.096 C 204.040 228.275,204.400 227.285,204.400 226.896 C 204.400 226.506,204.736 225.561,205.147 224.794 C 205.557 224.027,206.030 222.770,206.198 222.000 C 206.365 221.230,206.749 220.245,207.051 219.811 C 207.353 219.377,207.600 218.744,207.600 218.405 C 207.600 218.066,207.960 217.116,208.400 216.296 C 208.840 215.475,209.200 214.485,209.200 214.096 C 209.200 213.706,209.536 212.761,209.947 211.994 C 210.357 211.227,210.831 209.973,210.999 209.206 C 211.167 208.439,211.534 207.449,211.813 207.006 C 212.093 206.563,212.452 205.570,212.612 204.800 C 212.772 204.030,213.149 203.045,213.451 202.611 C 213.753 202.177,214.000 201.540,214.000 201.196 C 214.000 200.851,214.360 199.863,214.800 199.000 C 215.240 198.137,215.600 197.151,215.600 196.809 C 215.600 196.468,215.960 195.516,216.400 194.696 C 216.840 193.875,217.201 192.887,217.202 192.501 C 217.204 192.116,217.487 191.260,217.831 190.600 C 218.474 189.368,219.566 186.440,220.622 183.117 C 220.951 182.082,221.396 181.126,221.610 180.994 C 221.825 180.861,222.000 180.378,222.000 179.920 C 222.000 179.462,222.335 178.348,222.744 177.444 C 223.488 175.802,223.817 174.934,225.254 170.811 C 225.674 169.607,226.194 168.446,226.409 168.231 C 226.624 168.016,226.800 167.468,226.800 167.014 C 226.800 166.560,227.160 165.516,227.600 164.696 C 228.040 163.875,228.400 162.885,228.400 162.496 C 228.400 162.106,228.760 161.116,229.200 160.296 C 229.640 159.475,230.000 158.485,230.000 158.096 C 230.000 157.706,230.360 156.716,230.800 155.896 C 231.240 155.075,231.600 154.175,231.600 153.896 C 231.600 153.616,231.960 152.716,232.400 151.896 C 232.840 151.075,233.200 150.085,233.200 149.696 C 233.200 149.306,233.560 148.316,234.000 147.496 C 234.440 146.675,234.800 145.685,234.800 145.296 C 234.800 144.906,235.136 143.961,235.547 143.194 C 235.957 142.427,236.430 141.170,236.598 140.400 C 236.765 139.630,237.149 138.645,237.451 138.211 C 237.753 137.777,238.000 137.144,238.000 136.805 C 238.000 136.466,238.360 135.516,238.800 134.696 C 239.240 133.875,239.600 132.880,239.600 132.486 C 239.600 132.092,239.960 131.063,240.400 130.200 C 240.840 129.337,241.200 128.351,241.200 128.009 C 241.200 127.668,241.560 126.716,242.000 125.896 C 242.440 125.075,242.800 124.085,242.800 123.696 C 242.800 123.306,243.160 122.316,243.600 121.496 C 244.040 120.675,244.400 119.789,244.400 119.528 C 244.400 119.266,244.732 118.321,245.139 117.426 C 246.918 113.508,247.952 106.512,246.852 105.832 C 246.660 105.714,246.399 105.094,246.271 104.454 C 245.538 100.790,241.186 96.865,236.959 96.054 C 235.661 95.805,234.150 95.510,233.600 95.398 C 233.050 95.286,232.330 95.351,232.000 95.544 M125.600 129.930 C 124.830 130.079,123.660 130.544,123.000 130.965 C 121.131 132.157,56.400 196.922,56.400 197.600 C 56.400 198.280,119.539 261.449,121.400 262.632 C 126.839 266.088,135.270 264.879,139.054 260.100 C 141.924 256.475,142.169 255.777,142.185 251.184 C 142.209 244.302,143.391 245.802,117.709 220.114 C 105.549 207.952,95.600 197.694,95.600 197.321 C 95.600 196.947,106.040 186.178,118.800 173.390 C 133.059 159.099,142.005 149.842,142.014 149.369 C 142.021 148.946,142.375 147.880,142.800 147.000 C 144.263 143.971,143.481 139.018,140.951 135.289 C 140.428 134.519,139.999 133.778,139.997 133.644 C 139.996 133.510,139.321 132.968,138.497 132.439 C 137.674 131.911,136.488 131.128,135.862 130.699 C 134.631 129.856,128.407 129.390,125.600 129.930 M267.400 129.934 C 264.970 130.504,259.600 134.804,259.600 136.179 C 259.600 136.417,259.240 137.284,258.800 138.104 C 258.179 139.263,258.000 140.361,258.000 143.015 C 258.000 149.403,257.116 148.300,283.009 174.210 C 295.434 186.644,305.600 197.105,305.600 197.457 C 305.600 197.809,295.610 208.089,283.400 220.302 C 271.190 232.515,261.200 242.694,261.200 242.922 C 261.200 243.150,260.899 243.670,260.531 244.077 C 259.097 245.660,258.473 250.132,259.160 253.894 C 260.812 262.942,271.898 267.632,279.800 262.626 C 281.319 261.663,345.200 197.950,345.200 197.398 C 345.200 196.692,280.704 132.588,278.609 131.212 C 276.522 129.841,270.650 129.172,267.400 129.934 " stroke="none" fill="#fcf9f9" fill-rule="evenodd"></path><path id="path1" d="M176.916 1.600 C 176.719 2.352,176.370 2.400,171.153 2.400 C 165.867 2.400,165.600 2.438,165.600 3.200 C 165.600 3.947,165.333 4.000,161.600 4.000 C 157.867 4.000,157.600 4.053,157.600 4.800 C 157.600 5.544,157.333 5.600,153.763 5.600 C 150.262 5.600,149.907 5.670,149.716 6.400 C 149.530 7.110,149.170 7.200,146.516 7.200 C 143.862 7.200,143.502 7.290,143.316 8.000 C 143.139 8.677,142.770 8.800,140.916 8.800 C 139.062 8.800,138.693 8.923,138.516 9.600 C 138.339 10.277,137.970 10.400,136.116 10.400 C 134.262 10.400,133.893 10.523,133.716 11.200 C 133.539 11.877,133.170 12.000,131.316 12.000 C 129.462 12.000,129.093 12.123,128.916 12.800 C 128.752 13.427,128.370 13.600,127.153 13.600 C 125.867 13.600,125.600 13.737,125.600 14.400 C 125.600 15.105,125.333 15.200,123.363 15.200 C 121.462 15.200,121.094 15.320,120.916 16.000 C 120.752 16.627,120.370 16.800,119.153 16.800 C 117.867 16.800,117.600 16.937,117.600 17.600 C 117.600 18.267,117.333 18.400,116.000 18.400 C 114.667 18.400,114.400 18.533,114.400 19.200 C 114.400 19.867,114.133 20.000,112.800 20.000 C 111.467 20.000,111.200 20.133,111.200 20.800 C 111.200 21.467,110.933 21.600,109.600 21.600 C 108.267 21.600,108.000 21.733,108.000 22.400 C 108.000 23.067,107.733 23.200,106.400 23.200 C 105.067 23.200,104.800 23.333,104.800 24.000 C 104.800 24.667,104.533 24.800,103.200 24.800 C 101.867 24.800,101.600 24.933,101.600 25.600 C 101.600 26.252,101.333 26.400,100.163 26.400 C 99.062 26.400,98.676 26.587,98.516 27.200 C 98.357 27.806,97.970 28.000,96.916 28.000 C 95.862 28.000,95.475 28.194,95.316 28.800 C 95.200 29.243,94.770 29.600,94.353 29.600 C 93.867 29.600,93.600 29.883,93.600 30.400 C 93.600 31.052,93.333 31.200,92.163 31.200 C 91.062 31.200,90.676 31.387,90.516 32.000 C 90.400 32.443,89.970 32.800,89.553 32.800 C 89.067 32.800,88.800 33.083,88.800 33.600 C 88.800 34.252,88.533 34.400,87.363 34.400 C 86.262 34.400,85.876 34.587,85.716 35.200 C 85.600 35.643,85.170 36.000,84.753 36.000 C 84.267 36.000,84.000 36.283,84.000 36.800 C 84.000 37.452,83.733 37.600,82.563 37.600 C 81.462 37.600,81.076 37.787,80.916 38.400 C 80.800 38.843,80.370 39.200,79.953 39.200 C 79.467 39.200,79.200 39.483,79.200 40.000 C 79.200 40.533,78.933 40.800,78.400 40.800 C 77.867 40.800,77.600 41.067,77.600 41.600 C 77.600 42.252,77.333 42.400,76.163 42.400 C 75.062 42.400,74.676 42.587,74.516 43.200 C 74.400 43.643,73.970 44.000,73.553 44.000 C 73.067 44.000,72.800 44.283,72.800 44.800 C 72.800 45.333,72.533 45.600,72.000 45.600 C 71.467 45.600,71.200 45.867,71.200 46.400 C 71.200 46.933,70.933 47.200,70.400 47.200 C 69.867 47.200,69.600 47.467,69.600 48.000 C 69.600 48.533,69.333 48.800,68.800 48.800 C 68.267 48.800,68.000 49.067,68.000 49.600 C 68.000 50.252,67.733 50.400,66.563 50.400 C 65.485 50.400,65.075 50.591,64.926 51.163 C 64.816 51.583,64.383 52.016,63.963 52.126 C 63.543 52.235,63.200 52.591,63.200 52.916 C 63.200 53.241,62.840 53.601,62.400 53.716 C 61.960 53.831,61.600 54.212,61.600 54.563 C 61.600 54.933,61.265 55.200,60.800 55.200 C 60.267 55.200,60.000 55.467,60.000 56.000 C 60.000 56.533,59.733 56.800,59.200 56.800 C 58.667 56.800,58.400 57.067,58.400 57.600 C 58.400 58.133,58.133 58.400,57.600 58.400 C 57.067 58.400,56.800 58.667,56.800 59.200 C 56.800 59.733,56.533 60.000,56.000 60.000 C 55.467 60.000,55.200 60.267,55.200 60.800 C 55.200 61.333,54.933 61.600,54.400 61.600 C 53.883 61.600,53.600 61.867,53.600 62.353 C 53.600 62.770,53.243 63.200,52.800 63.316 C 52.360 63.431,52.000 63.791,52.000 64.116 C 52.000 64.441,51.640 64.801,51.200 64.916 C 50.760 65.031,50.400 65.391,50.400 65.716 C 50.400 66.041,50.040 66.401,49.600 66.516 C 48.987 66.676,48.800 67.062,48.800 68.163 C 48.800 69.333,48.652 69.600,48.000 69.600 C 47.467 69.600,47.200 69.867,47.200 70.400 C 47.200 70.933,46.933 71.200,46.400 71.200 C 45.867 71.200,45.600 71.467,45.600 72.000 C 45.600 72.533,45.333 72.800,44.800 72.800 C 44.283 72.800,44.000 73.067,44.000 73.553 C 44.000 73.970,43.643 74.400,43.200 74.516 C 42.760 74.631,42.400 74.991,42.400 75.316 C 42.400 75.641,42.040 76.001,41.600 76.116 C 40.987 76.276,40.800 76.662,40.800 77.763 C 40.800 78.933,40.652 79.200,40.000 79.200 C 39.467 79.200,39.200 79.467,39.200 80.000 C 39.200 80.533,38.933 80.800,38.400 80.800 C 37.883 80.800,37.600 81.067,37.600 81.553 C 37.600 81.970,37.243 82.400,36.800 82.516 C 36.187 82.676,36.000 83.062,36.000 84.163 C 36.000 85.333,35.852 85.600,35.200 85.600 C 34.683 85.600,34.400 85.867,34.400 86.353 C 34.400 86.770,34.043 87.200,33.600 87.316 C 32.987 87.476,32.800 87.862,32.800 88.963 C 32.800 90.133,32.652 90.400,32.000 90.400 C 31.483 90.400,31.200 90.667,31.200 91.153 C 31.200 91.570,30.843 92.000,30.400 92.116 C 29.787 92.276,29.600 92.662,29.600 93.763 C 29.600 94.933,29.452 95.200,28.800 95.200 C 28.133 95.200,28.000 95.467,28.000 96.800 C 28.000 98.133,27.867 98.400,27.200 98.400 C 26.683 98.400,26.400 98.667,26.400 99.153 C 26.400 99.570,26.043 100.000,25.600 100.116 C 24.994 100.275,24.800 100.662,24.800 101.716 C 24.800 102.770,24.606 103.157,24.000 103.316 C 23.387 103.476,23.200 103.862,23.200 104.963 C 23.200 106.133,23.052 106.400,22.400 106.400 C 21.733 106.400,21.600 106.667,21.600 108.000 C 21.600 109.333,21.467 109.600,20.800 109.600 C 20.133 109.600,20.000 109.867,20.000 111.200 C 20.000 112.533,19.867 112.800,19.200 112.800 C 18.533 112.800,18.400 113.067,18.400 114.400 C 18.400 115.733,18.267 116.000,17.600 116.000 C 16.937 116.000,16.800 116.267,16.800 117.553 C 16.800 118.770,16.627 119.152,16.000 119.316 C 15.320 119.494,15.200 119.862,15.200 121.763 C 15.200 123.733,15.105 124.000,14.400 124.000 C 13.737 124.000,13.600 124.267,13.600 125.553 C 13.600 126.770,13.427 127.152,12.800 127.316 C 12.120 127.494,12.000 127.862,12.000 129.763 C 12.000 131.733,11.905 132.000,11.200 132.000 C 10.489 132.000,10.400 132.267,10.400 134.400 C 10.400 136.533,10.311 136.800,9.600 136.800 C 8.889 136.800,8.800 137.067,8.800 139.200 C 8.800 141.333,8.711 141.600,8.000 141.600 C 7.291 141.600,7.200 141.867,7.200 143.953 C 7.200 145.970,7.086 146.337,6.400 146.516 C 5.690 146.702,5.600 147.062,5.600 149.716 C 5.600 152.370,5.510 152.730,4.800 152.916 C 4.070 153.107,4.000 153.462,4.000 156.963 C 4.000 160.533,3.944 160.800,3.200 160.800 C 2.454 160.800,2.400 161.067,2.400 164.753 C 2.400 168.370,2.332 168.724,1.600 168.916 C 0.838 169.115,0.800 169.462,0.800 176.163 C 0.800 180.588,0.652 183.200,0.400 183.200 C 0.139 183.200,0.000 189.333,0.000 200.800 C 0.000 212.267,0.139 218.400,0.400 218.400 C 0.652 218.400,0.800 221.012,0.800 225.437 C 0.800 232.138,0.838 232.485,1.600 232.684 C 2.341 232.878,2.400 233.230,2.400 237.484 C 2.400 241.738,2.459 242.090,3.200 242.284 C 3.915 242.471,4.000 242.830,4.000 245.647 C 4.000 248.533,4.068 248.800,4.800 248.800 C 5.530 248.800,5.600 249.067,5.600 251.837 C 5.600 254.538,5.689 254.898,6.400 255.084 C 7.086 255.263,7.200 255.630,7.200 257.647 C 7.200 259.733,7.291 260.000,8.000 260.000 C 8.730 260.000,8.800 260.267,8.800 263.037 C 8.800 265.738,8.889 266.098,9.600 266.284 C 10.227 266.448,10.400 266.830,10.400 268.047 C 10.400 269.333,10.537 269.600,11.200 269.600 C 11.911 269.600,12.000 269.867,12.000 272.000 C 12.000 274.133,12.089 274.400,12.800 274.400 C 13.505 274.400,13.600 274.667,13.600 276.637 C 13.600 278.538,13.720 278.906,14.400 279.084 C 15.006 279.243,15.200 279.630,15.200 280.684 C 15.200 281.738,15.394 282.125,16.000 282.284 C 16.627 282.448,16.800 282.830,16.800 284.047 C 16.800 285.333,16.937 285.600,17.600 285.600 C 18.267 285.600,18.400 285.867,18.400 287.200 C 18.400 288.533,18.533 288.800,19.200 288.800 C 19.867 288.800,20.000 289.067,20.000 290.400 C 20.000 291.733,20.133 292.000,20.800 292.000 C 21.467 292.000,21.600 292.267,21.600 293.600 C 21.600 294.933,21.733 295.200,22.400 295.200 C 23.067 295.200,23.200 295.467,23.200 296.800 C 23.200 298.133,23.333 298.400,24.000 298.400 C 24.652 298.400,24.800 298.667,24.800 299.837 C 24.800 300.938,24.987 301.324,25.600 301.484 C 26.206 301.643,26.400 302.030,26.400 303.084 C 26.400 304.138,26.594 304.525,27.200 304.684 C 27.643 304.800,28.000 305.230,28.000 305.647 C 28.000 306.133,28.283 306.400,28.800 306.400 C 29.452 306.400,29.600 306.667,29.600 307.837 C 29.600 308.938,29.787 309.324,30.400 309.484 C 30.843 309.600,31.200 310.030,31.200 310.447 C 31.200 310.933,31.483 311.200,32.000 311.200 C 32.652 311.200,32.800 311.467,32.800 312.637 C 32.800 313.738,32.987 314.124,33.600 314.284 C 34.043 314.400,34.400 314.830,34.400 315.247 C 34.400 315.733,34.683 316.000,35.200 316.000 C 35.852 316.000,36.000 316.267,36.000 317.437 C 36.000 318.538,36.187 318.924,36.800 319.084 C 37.243 319.200,37.600 319.630,37.600 320.047 C 37.600 320.533,37.883 320.800,38.400 320.800 C 38.933 320.800,39.200 321.067,39.200 321.600 C 39.200 322.133,39.467 322.400,40.000 322.400 C 40.652 322.400,40.800 322.667,40.800 323.837 C 40.800 324.938,40.987 325.324,41.600 325.484 C 42.043 325.600,42.400 326.030,42.400 326.447 C 42.400 326.933,42.683 327.200,43.200 327.200 C 43.733 327.200,44.000 327.467,44.000 328.000 C 44.000 328.533,44.267 328.800,44.800 328.800 C 45.333 328.800,45.600 329.067,45.600 329.600 C 45.600 330.133,45.867 330.400,46.400 330.400 C 46.933 330.400,47.200 330.667,47.200 331.200 C 47.200 331.733,47.467 332.000,48.000 332.000 C 48.652 332.000,48.800 332.267,48.800 333.437 C 48.800 334.538,48.987 334.924,49.600 335.084 C 50.040 335.199,50.400 335.559,50.400 335.884 C 50.400 336.209,50.760 336.569,51.200 336.684 C 51.643 336.800,52.000 337.230,52.000 337.647 C 52.000 338.133,52.283 338.400,52.800 338.400 C 53.333 338.400,53.600 338.667,53.600 339.200 C 53.600 339.733,53.867 340.000,54.400 340.000 C 54.933 340.000,55.200 340.267,55.200 340.800 C 55.200 341.333,55.467 341.600,56.000 341.600 C 56.533 341.600,56.800 341.867,56.800 342.400 C 56.800 342.933,57.067 343.200,57.600 343.200 C 58.133 343.200,58.400 343.467,58.400 344.000 C 58.400 344.533,58.667 344.800,59.200 344.800 C 59.733 344.800,60.000 345.067,60.000 345.600 C 60.000 346.133,60.267 346.400,60.800 346.400 C 61.333 346.400,61.600 346.667,61.600 347.200 C 61.600 347.733,61.867 348.000,62.400 348.000 C 62.865 348.000,63.200 348.267,63.200 348.637 C 63.200 348.988,63.560 349.369,64.000 349.484 C 64.440 349.599,64.800 349.959,64.800 350.284 C 64.800 350.609,65.143 350.965,65.563 351.074 C 65.983 351.184,66.416 351.617,66.526 352.037 C 66.675 352.609,67.085 352.800,68.163 352.800 C 69.333 352.800,69.600 352.948,69.600 353.600 C 69.600 354.133,69.867 354.400,70.400 354.400 C 70.933 354.400,71.200 354.667,71.200 355.200 C 71.200 355.733,71.467 356.000,72.000 356.000 C 72.533 356.000,72.800 356.267,72.800 356.800 C 72.800 357.317,73.067 357.600,73.553 357.600 C 73.970 357.600,74.400 357.957,74.516 358.400 C 74.676 359.013,75.062 359.200,76.163 359.200 C 77.333 359.200,77.600 359.348,77.600 360.000 C 77.600 360.533,77.867 360.800,78.400 360.800 C 78.933 360.800,79.200 361.067,79.200 361.600 C 79.200 362.117,79.467 362.400,79.953 362.400 C 80.370 362.400,80.800 362.757,80.916 363.200 C 81.076 363.813,81.462 364.000,82.563 364.000 C 83.733 364.000,84.000 364.148,84.000 364.800 C 84.000 365.333,84.267 365.600,84.800 365.600 C 85.333 365.600,85.600 365.867,85.600 366.400 C 85.600 367.067,85.867 367.200,87.200 367.200 C 88.533 367.200,88.800 367.333,88.800 368.000 C 88.800 368.533,89.067 368.800,89.600 368.800 C 90.133 368.800,90.400 369.067,90.400 369.600 C 90.400 370.267,90.667 370.400,92.000 370.400 C 93.333 370.400,93.600 370.533,93.600 371.200 C 93.600 371.717,93.867 372.000,94.353 372.000 C 94.770 372.000,95.200 372.357,95.316 372.800 C 95.476 373.413,95.862 373.600,96.963 373.600 C 98.133 373.600,98.400 373.748,98.400 374.400 C 98.400 375.067,98.667 375.200,100.000 375.200 C 101.333 375.200,101.600 375.333,101.600 376.000 C 101.600 376.517,101.867 376.800,102.353 376.800 C 102.770 376.800,103.200 377.157,103.316 377.600 C 103.475 378.206,103.862 378.400,104.916 378.400 C 105.970 378.400,106.357 378.594,106.516 379.200 C 106.675 379.806,107.062 380.000,108.116 380.000 C 109.170 380.000,109.557 380.194,109.716 380.800 C 109.875 381.406,110.262 381.600,111.316 381.600 C 112.370 381.600,112.757 381.794,112.916 382.400 C 113.094 383.080,113.462 383.200,115.363 383.200 C 117.333 383.200,117.600 383.295,117.600 384.000 C 117.600 384.667,117.867 384.800,119.200 384.800 C 120.533 384.800,120.800 384.933,120.800 385.600 C 120.800 386.263,121.067 386.400,122.353 386.400 C 123.570 386.400,123.952 386.573,124.116 387.200 C 124.294 387.880,124.662 388.000,126.563 388.000 C 128.533 388.000,128.800 388.095,128.800 388.800 C 128.800 389.511,129.067 389.600,131.200 389.600 C 133.333 389.600,133.600 389.689,133.600 390.400 C 133.600 391.111,133.867 391.200,136.000 391.200 C 138.133 391.200,138.400 391.289,138.400 392.000 C 138.400 392.709,138.667 392.800,140.753 392.800 C 142.770 392.800,143.137 392.914,143.316 393.600 C 143.502 394.311,143.862 394.400,146.563 394.400 C 149.333 394.400,149.600 394.470,149.600 395.200 C 149.600 395.932,149.867 396.000,152.753 396.000 C 155.570 396.000,155.929 396.085,156.116 396.800 C 156.307 397.529,156.662 397.600,160.116 397.600 C 163.570 397.600,163.925 397.671,164.116 398.400 C 164.312 399.151,164.662 399.200,169.763 399.200 C 173.121 399.200,175.200 399.353,175.200 399.600 C 175.200 399.862,183.467 400.000,199.200 400.000 C 214.933 400.000,223.200 399.862,223.200 399.600 C 223.200 399.352,225.333 399.200,228.800 399.200 C 234.133 399.200,234.400 399.162,234.400 398.400 C 234.400 397.646,234.667 397.600,239.037 397.600 C 243.338 397.600,243.690 397.542,243.884 396.800 C 244.070 396.090,244.430 396.000,247.084 396.000 C 249.738 396.000,250.098 395.910,250.284 395.200 C 250.470 394.490,250.830 394.400,253.484 394.400 C 256.138 394.400,256.498 394.310,256.684 393.600 C 256.861 392.923,257.230 392.800,259.084 392.800 C 260.938 392.800,261.307 392.677,261.484 392.000 C 261.661 391.323,262.030 391.200,263.884 391.200 C 265.738 391.200,266.107 391.077,266.284 390.400 C 266.461 389.723,266.830 389.600,268.684 389.600 C 270.538 389.600,270.907 389.477,271.084 388.800 C 271.248 388.173,271.630 388.000,272.847 388.000 C 274.133 388.000,274.400 387.863,274.400 387.200 C 274.400 386.495,274.667 386.400,276.637 386.400 C 278.538 386.400,278.906 386.280,279.084 385.600 C 279.248 384.973,279.630 384.800,280.847 384.800 C 282.133 384.800,282.400 384.663,282.400 384.000 C 282.400 383.333,282.667 383.200,284.000 383.200 C 285.333 383.200,285.600 383.067,285.600 382.400 C 285.600 381.733,285.867 381.600,287.200 381.600 C 288.533 381.600,288.800 381.467,288.800 380.800 C 288.800 380.133,289.067 380.000,290.400 380.000 C 291.733 380.000,292.000 379.867,292.000 379.200 C 292.000 378.533,292.267 378.400,293.600 378.400 C 294.933 378.400,295.200 378.267,295.200 377.600 C 295.200 376.933,295.467 376.800,296.800 376.800 C 298.133 376.800,298.400 376.667,298.400 376.000 C 298.400 375.348,298.667 375.200,299.837 375.200 C 300.938 375.200,301.324 375.013,301.484 374.400 C 301.600 373.957,302.030 373.600,302.447 373.600 C 302.933 373.600,303.200 373.317,303.200 372.800 C 303.200 372.133,303.467 372.000,304.800 372.000 C 306.133 372.000,306.400 371.867,306.400 371.200 C 306.400 370.548,306.667 370.400,307.837 370.400 C 308.938 370.400,309.324 370.213,309.484 369.600 C 309.600 369.157,310.030 368.800,310.447 368.800 C 310.933 368.800,311.200 368.517,311.200 368.000 C 311.200 367.348,311.467 367.200,312.637 367.200 C 313.738 367.200,314.124 367.013,314.284 366.400 C 314.400 365.957,314.830 365.600,315.247 365.600 C 315.733 365.600,316.000 365.317,316.000 364.800 C 316.000 364.267,316.267 364.000,316.800 364.000 C 317.333 364.000,317.600 363.733,317.600 363.200 C 317.600 362.548,317.867 362.400,319.037 362.400 C 320.138 362.400,320.524 362.213,320.684 361.600 C 320.800 361.157,321.230 360.800,321.647 360.800 C 322.133 360.800,322.400 360.517,322.400 360.000 C 322.400 359.467,322.667 359.200,323.200 359.200 C 323.733 359.200,324.000 358.933,324.000 358.400 C 324.000 357.748,324.267 357.600,325.437 357.600 C 326.538 357.600,326.924 357.413,327.084 356.800 C 327.200 356.357,327.630 356.000,328.047 356.000 C 328.533 356.000,328.800 355.717,328.800 355.200 C 328.800 354.667,329.067 354.400,329.600 354.400 C 330.133 354.400,330.400 354.133,330.400 353.600 C 330.400 353.067,330.667 352.800,331.200 352.800 C 331.733 352.800,332.000 352.533,332.000 352.000 C 332.000 351.467,332.267 351.200,332.800 351.200 C 333.333 351.200,333.600 350.933,333.600 350.400 C 333.600 349.867,333.867 349.600,334.400 349.600 C 334.933 349.600,335.200 349.333,335.200 348.800 C 335.200 348.148,335.467 348.000,336.637 348.000 C 337.715 348.000,338.125 347.809,338.274 347.237 C 338.384 346.817,338.817 346.384,339.237 346.274 C 339.657 346.165,340.000 345.809,340.000 345.484 C 340.000 345.159,340.360 344.799,340.800 344.684 C 341.240 344.569,341.600 344.209,341.600 343.884 C 341.600 343.559,341.960 343.199,342.400 343.084 C 342.840 342.969,343.200 342.609,343.200 342.284 C 343.200 341.959,343.560 341.599,344.000 341.484 C 344.440 341.369,344.800 341.009,344.800 340.684 C 344.800 340.359,345.160 339.999,345.600 339.884 C 346.213 339.724,346.400 339.338,346.400 338.237 C 346.400 337.067,346.548 336.800,347.200 336.800 C 347.733 336.800,348.000 336.533,348.000 336.000 C 348.000 335.467,348.267 335.200,348.800 335.200 C 349.333 335.200,349.600 334.933,349.600 334.400 C 349.600 333.867,349.867 333.600,350.400 333.600 C 350.933 333.600,351.200 333.333,351.200 332.800 C 351.200 332.267,351.467 332.000,352.000 332.000 C 352.533 332.000,352.800 331.733,352.800 331.200 C 352.800 330.667,353.067 330.400,353.600 330.400 C 354.117 330.400,354.400 330.133,354.400 329.647 C 354.400 329.230,354.757 328.800,355.200 328.684 C 355.813 328.524,356.000 328.138,356.000 327.037 C 356.000 325.867,356.148 325.600,356.800 325.600 C 357.333 325.600,357.600 325.333,357.600 324.800 C 357.600 324.267,357.867 324.000,358.400 324.000 C 358.933 324.000,359.200 323.733,359.200 323.200 C 359.200 322.667,359.467 322.400,360.000 322.400 C 360.517 322.400,360.800 322.133,360.800 321.647 C 360.800 321.230,361.157 320.800,361.600 320.684 C 362.213 320.524,362.400 320.138,362.400 319.037 C 362.400 317.867,362.548 317.600,363.200 317.600 C 363.717 317.600,364.000 317.333,364.000 316.847 C 364.000 316.430,364.357 316.000,364.800 315.884 C 365.413 315.724,365.600 315.338,365.600 314.237 C 365.600 313.067,365.748 312.800,366.400 312.800 C 366.917 312.800,367.200 312.533,367.200 312.047 C 367.200 311.630,367.557 311.200,368.000 311.084 C 368.613 310.924,368.800 310.538,368.800 309.437 C 368.800 308.267,368.948 308.000,369.600 308.000 C 370.117 308.000,370.400 307.733,370.400 307.247 C 370.400 306.830,370.757 306.400,371.200 306.284 C 371.813 306.124,372.000 305.738,372.000 304.637 C 372.000 303.467,372.148 303.200,372.800 303.200 C 373.467 303.200,373.600 302.933,373.600 301.600 C 373.600 300.267,373.733 300.000,374.400 300.000 C 375.067 300.000,375.200 299.733,375.200 298.400 C 375.200 297.067,375.333 296.800,376.000 296.800 C 376.517 296.800,376.800 296.533,376.800 296.047 C 376.800 295.630,377.157 295.200,377.600 295.084 C 378.206 294.925,378.400 294.538,378.400 293.484 C 378.400 292.430,378.594 292.043,379.200 291.884 C 379.806 291.725,380.000 291.338,380.000 290.284 C 380.000 289.230,380.194 288.843,380.800 288.684 C 381.480 288.506,381.600 288.138,381.600 286.237 C 381.600 284.267,381.695 284.000,382.400 284.000 C 383.067 284.000,383.200 283.733,383.200 282.400 C 383.200 281.067,383.333 280.800,384.000 280.800 C 384.663 280.800,384.800 280.533,384.800 279.247 C 384.800 278.030,384.973 277.648,385.600 277.484 C 386.280 277.306,386.400 276.938,386.400 275.037 C 386.400 273.067,386.495 272.800,387.200 272.800 C 387.911 272.800,388.000 272.533,388.000 270.400 C 388.000 268.267,388.089 268.000,388.800 268.000 C 389.463 268.000,389.600 267.733,389.600 266.447 C 389.600 265.230,389.773 264.848,390.400 264.684 C 391.111 264.498,391.200 264.138,391.200 261.437 C 391.200 258.667,391.270 258.400,392.000 258.400 C 392.709 258.400,392.800 258.133,392.800 256.047 C 392.800 254.030,392.914 253.663,393.600 253.484 C 394.310 253.298,394.400 252.938,394.400 250.284 C 394.400 247.630,394.490 247.270,395.200 247.084 C 395.929 246.893,396.000 246.538,396.000 243.084 C 396.000 239.630,396.071 239.275,396.800 239.084 C 397.551 238.888,397.600 238.538,397.600 233.437 C 397.600 228.267,397.639 228.000,398.400 228.000 C 399.178 228.000,399.200 227.733,399.200 218.400 C 399.200 212.267,399.344 208.800,399.600 208.800 C 399.853 208.800,400.000 205.867,400.000 200.800 C 400.000 195.733,399.853 192.800,399.600 192.800 C 399.344 192.800,399.200 189.333,399.200 183.200 C 399.200 173.867,399.178 173.600,398.400 173.600 C 397.639 173.600,397.600 173.333,397.600 168.163 C 397.600 163.062,397.551 162.712,396.800 162.516 C 396.071 162.325,396.000 161.970,396.000 158.516 C 396.000 155.062,395.929 154.707,395.200 154.516 C 394.490 154.330,394.400 153.970,394.400 151.316 C 394.400 148.662,394.310 148.302,393.600 148.116 C 392.914 147.937,392.800 147.570,392.800 145.553 C 392.800 143.467,392.709 143.200,392.000 143.200 C 391.289 143.200,391.200 142.933,391.200 140.800 C 391.200 138.667,391.111 138.400,390.400 138.400 C 389.689 138.400,389.600 138.133,389.600 136.000 C 389.600 133.867,389.511 133.600,388.800 133.600 C 388.089 133.600,388.000 133.333,388.000 131.200 C 388.000 129.067,387.911 128.800,387.200 128.800 C 386.495 128.800,386.400 128.533,386.400 126.563 C 386.400 124.662,386.280 124.294,385.600 124.116 C 384.973 123.952,384.800 123.570,384.800 122.353 C 384.800 121.067,384.663 120.800,384.000 120.800 C 383.333 120.800,383.200 120.533,383.200 119.200 C 383.200 117.867,383.067 117.600,382.400 117.600 C 381.733 117.600,381.600 117.333,381.600 116.000 C 381.600 114.667,381.467 114.400,380.800 114.400 C 380.133 114.400,380.000 114.133,380.000 112.800 C 380.000 111.467,379.867 111.200,379.200 111.200 C 378.533 111.200,378.400 110.933,378.400 109.600 C 378.400 108.267,378.267 108.000,377.600 108.000 C 376.933 108.000,376.800 107.733,376.800 106.400 C 376.800 105.067,376.667 104.800,376.000 104.800 C 375.333 104.800,375.200 104.533,375.200 103.200 C 375.200 101.867,375.067 101.600,374.400 101.600 C 373.748 101.600,373.600 101.333,373.600 100.163 C 373.600 99.062,373.413 98.676,372.800 98.516 C 372.194 98.357,372.000 97.970,372.000 96.916 C 372.000 95.862,371.806 95.475,371.200 95.316 C 370.757 95.200,370.400 94.770,370.400 94.353 C 370.400 93.867,370.117 93.600,369.600 93.600 C 368.948 93.600,368.800 93.333,368.800 92.163 C 368.800 91.062,368.613 90.676,368.000 90.516 C 367.557 90.400,367.200 89.970,367.200 89.553 C 367.200 89.067,366.917 88.800,366.400 88.800 C 365.748 88.800,365.600 88.533,365.600 87.363 C 365.600 86.262,365.413 85.876,364.800 85.716 C 364.357 85.600,364.000 85.170,364.000 84.753 C 364.000 84.267,363.717 84.000,363.200 84.000 C 362.667 84.000,362.400 83.733,362.400 83.200 C 362.400 82.667,362.133 82.400,361.600 82.400 C 360.948 82.400,360.800 82.133,360.800 80.963 C 360.800 79.862,360.613 79.476,360.000 79.316 C 359.557 79.200,359.200 78.770,359.200 78.353 C 359.200 77.867,358.917 77.600,358.400 77.600 C 357.867 77.600,357.600 77.333,357.600 76.800 C 357.600 76.267,357.333 76.000,356.800 76.000 C 356.148 76.000,356.000 75.733,356.000 74.563 C 356.000 73.462,355.813 73.076,355.200 72.916 C 354.757 72.800,354.400 72.370,354.400 71.953 C 354.400 71.467,354.117 71.200,353.600 71.200 C 353.067 71.200,352.800 70.933,352.800 70.400 C 352.800 69.867,352.533 69.600,352.000 69.600 C 351.467 69.600,351.200 69.333,351.200 68.800 C 351.200 68.267,350.933 68.000,350.400 68.000 C 349.867 68.000,349.600 67.733,349.600 67.200 C 349.600 66.667,349.333 66.400,348.800 66.400 C 348.267 66.400,348.000 66.133,348.000 65.600 C 348.000 65.067,347.733 64.800,347.200 64.800 C 346.667 64.800,346.400 64.533,346.400 64.000 C 346.400 63.467,346.133 63.200,345.600 63.200 C 345.067 63.200,344.800 62.933,344.800 62.400 C 344.800 61.867,344.533 61.600,344.000 61.600 C 343.467 61.600,343.200 61.333,343.200 60.800 C 343.200 60.267,342.933 60.000,342.400 60.000 C 341.867 60.000,341.600 59.733,341.600 59.200 C 341.600 58.667,341.333 58.400,340.800 58.400 C 340.267 58.400,340.000 58.133,340.000 57.600 C 340.000 57.067,339.733 56.800,339.200 56.800 C 338.667 56.800,338.400 56.533,338.400 56.000 C 338.400 55.467,338.133 55.200,337.600 55.200 C 337.067 55.200,336.800 54.933,336.800 54.400 C 336.800 53.867,336.533 53.600,336.000 53.600 C 335.467 53.600,335.200 53.333,335.200 52.800 C 335.200 52.267,334.933 52.000,334.400 52.000 C 333.867 52.000,333.600 51.733,333.600 51.200 C 333.600 50.667,333.333 50.400,332.800 50.400 C 332.267 50.400,332.000 50.133,332.000 49.600 C 332.000 49.067,331.733 48.800,331.200 48.800 C 330.667 48.800,330.400 48.533,330.400 48.000 C 330.400 47.483,330.133 47.200,329.647 47.200 C 329.230 47.200,328.800 46.843,328.684 46.400 C 328.569 45.960,328.209 45.600,327.884 45.600 C 327.559 45.600,327.199 45.240,327.084 44.800 C 326.924 44.187,326.538 44.000,325.437 44.000 C 324.267 44.000,324.000 43.852,324.000 43.200 C 324.000 42.667,323.733 42.400,323.200 42.400 C 322.667 42.400,322.400 42.133,322.400 41.600 C 322.400 41.083,322.133 40.800,321.647 40.800 C 321.230 40.800,320.800 40.443,320.684 40.000 C 320.524 39.387,320.138 39.200,319.037 39.200 C 317.867 39.200,317.600 39.052,317.600 38.400 C 317.600 37.867,317.333 37.600,316.800 37.600 C 316.267 37.600,316.000 37.333,316.000 36.800 C 316.000 36.133,315.733 36.000,314.400 36.000 C 313.067 36.000,312.800 35.867,312.800 35.200 C 312.800 34.667,312.533 34.400,312.000 34.400 C 311.467 34.400,311.200 34.133,311.200 33.600 C 311.200 32.933,310.933 32.800,309.600 32.800 C 308.267 32.800,308.000 32.667,308.000 32.000 C 308.000 31.483,307.733 31.200,307.247 31.200 C 306.830 31.200,306.400 30.843,306.284 30.400 C 306.124 29.787,305.738 29.600,304.637 29.600 C 303.467 29.600,303.200 29.452,303.200 28.800 C 303.200 28.283,302.933 28.000,302.447 28.000 C 302.030 28.000,301.600 27.643,301.484 27.200 C 301.325 26.594,300.938 26.400,299.884 26.400 C 298.830 26.400,298.443 26.206,298.284 25.600 C 298.124 24.987,297.738 24.800,296.637 24.800 C 295.467 24.800,295.200 24.652,295.200 24.000 C 295.200 23.333,294.933 23.200,293.600 23.200 C 292.267 23.200,292.000 23.067,292.000 22.400 C 292.000 21.733,291.733 21.600,290.400 21.600 C 289.067 21.600,288.800 21.467,288.800 20.800 C 288.800 20.133,288.533 20.000,287.200 20.000 C 285.867 20.000,285.600 19.867,285.600 19.200 C 285.600 18.537,285.333 18.400,284.047 18.400 C 282.830 18.400,282.448 18.227,282.284 17.600 C 282.125 16.994,281.738 16.800,280.684 16.800 C 279.630 16.800,279.243 16.606,279.084 16.000 C 278.906 15.320,278.538 15.200,276.637 15.200 C 274.667 15.200,274.400 15.105,274.400 14.400 C 274.400 13.689,274.133 13.600,272.000 13.600 C 269.867 13.600,269.600 13.511,269.600 12.800 C 269.600 12.137,269.333 12.000,268.047 12.000 C 266.830 12.000,266.448 11.827,266.284 11.200 C 266.107 10.523,265.738 10.400,263.884 10.400 C 262.030 10.400,261.661 10.277,261.484 9.600 C 261.298 8.889,260.938 8.800,258.237 8.800 C 255.467 8.800,255.200 8.730,255.200 8.000 C 255.200 7.267,254.933 7.200,252.000 7.200 C 249.067 7.200,248.800 7.133,248.800 6.400 C 248.800 5.667,248.533 5.600,245.600 5.600 C 242.667 5.600,242.400 5.533,242.400 4.800 C 242.400 4.054,242.133 4.000,238.447 4.000 C 234.830 4.000,234.476 3.932,234.284 3.200 C 234.086 2.443,233.738 2.400,227.837 2.400 C 221.867 2.400,221.600 2.366,221.600 1.600 C 221.600 0.810,221.333 0.800,199.363 0.800 C 177.462 0.800,177.122 0.812,176.916 1.600 M238.030 94.936 C 238.552 95.301,239.390 95.600,239.893 95.600 C 240.396 95.600,241.116 95.960,241.493 96.400 C 241.870 96.840,242.332 97.200,242.520 97.200 C 243.003 97.200,245.200 99.454,245.200 99.949 C 245.200 100.175,245.441 100.504,245.734 100.680 C 248.143 102.121,249.442 111.818,247.600 114.600 C 247.163 115.260,246.804 116.255,246.803 116.811 C 246.801 117.367,246.507 118.241,246.148 118.753 C 245.790 119.265,245.335 120.402,245.137 121.281 C 244.940 122.160,244.513 123.144,244.189 123.468 C 243.865 123.792,243.599 124.539,243.597 125.129 C 243.596 125.718,243.237 126.740,242.800 127.400 C 242.363 128.060,242.003 129.050,242.000 129.600 C 241.997 130.150,241.637 131.140,241.200 131.800 C 240.763 132.460,240.403 133.450,240.400 134.000 C 240.397 134.550,240.037 135.540,239.600 136.200 C 239.163 136.860,238.804 137.871,238.803 138.446 C 238.801 139.021,238.440 139.950,238.000 140.509 C 237.560 141.069,237.199 141.948,237.197 142.463 C 237.196 142.978,236.837 143.940,236.400 144.600 C 235.963 145.260,235.603 146.250,235.600 146.800 C 235.597 147.350,235.237 148.340,234.800 149.000 C 234.363 149.660,234.003 150.650,234.000 151.200 C 233.997 151.750,233.637 152.740,233.200 153.400 C 232.763 154.060,232.404 154.963,232.403 155.406 C 232.401 155.849,232.040 156.884,231.600 157.704 C 231.160 158.525,230.799 159.513,230.797 159.899 C 230.796 160.284,230.437 161.140,230.000 161.800 C 229.563 162.460,229.203 163.450,229.200 164.000 C 229.197 164.550,228.837 165.540,228.400 166.200 C 227.963 166.860,227.603 167.850,227.600 168.400 C 227.597 168.950,227.237 169.940,226.800 170.600 C 226.363 171.260,226.004 172.273,226.003 172.851 C 226.001 173.429,225.735 174.122,225.411 174.391 C 225.086 174.660,224.705 175.537,224.562 176.340 C 224.419 177.143,223.965 178.361,223.551 179.047 C 223.138 179.733,222.799 180.723,222.797 181.247 C 222.796 181.771,222.437 182.740,222.000 183.400 C 221.563 184.060,221.204 185.055,221.203 185.611 C 221.201 186.167,220.907 187.041,220.548 187.553 C 220.190 188.065,219.735 189.202,219.537 190.081 C 219.340 190.960,218.913 191.944,218.589 192.268 C 218.265 192.592,217.999 193.339,217.997 193.929 C 217.996 194.518,217.637 195.540,217.200 196.200 C 216.763 196.860,216.403 197.850,216.400 198.400 C 216.397 198.950,216.037 199.940,215.600 200.600 C 215.163 201.260,214.804 202.163,214.803 202.606 C 214.801 203.049,214.440 204.084,214.000 204.904 C 213.560 205.725,213.200 206.823,213.200 207.345 C 213.200 207.866,212.840 208.750,212.400 209.309 C 211.960 209.869,211.599 210.748,211.597 211.263 C 211.596 211.778,211.237 212.740,210.800 213.400 C 210.363 214.060,210.003 215.050,210.000 215.600 C 209.997 216.150,209.637 217.140,209.200 217.800 C 208.763 218.460,208.403 219.450,208.400 220.000 C 208.397 220.550,208.037 221.540,207.600 222.200 C 207.163 222.860,206.804 223.763,206.803 224.206 C 206.801 224.649,206.440 225.684,206.000 226.504 C 205.560 227.325,205.199 228.313,205.197 228.699 C 205.196 229.084,204.837 229.940,204.400 230.600 C 203.963 231.260,203.603 232.250,203.600 232.800 C 203.597 233.350,203.237 234.340,202.800 235.000 C 202.363 235.660,202.004 236.563,202.003 237.006 C 202.001 237.449,201.640 238.484,201.200 239.304 C 200.760 240.125,200.400 241.226,200.400 241.750 C 200.400 242.273,200.135 242.922,199.811 243.191 C 199.486 243.460,199.105 244.337,198.962 245.140 C 198.819 245.943,198.365 247.161,197.951 247.847 C 197.538 248.533,197.199 249.523,197.197 250.047 C 197.196 250.571,196.837 251.540,196.400 252.200 C 195.963 252.860,195.604 253.873,195.603 254.451 C 195.601 255.029,195.342 255.716,195.028 255.977 C 194.713 256.238,194.262 257.354,194.025 258.457 C 193.789 259.560,193.326 260.731,192.998 261.060 C 192.669 261.388,192.399 262.139,192.397 262.729 C 192.396 263.318,192.037 264.340,191.600 265.000 C 191.163 265.660,190.804 266.655,190.803 267.211 C 190.801 267.767,190.507 268.641,190.148 269.153 C 189.790 269.665,189.335 270.802,189.137 271.681 C 188.940 272.560,188.513 273.544,188.189 273.868 C 187.865 274.192,187.600 275.050,187.600 275.775 C 187.600 276.499,187.240 277.550,186.800 278.109 C 186.360 278.669,185.999 279.548,185.997 280.063 C 185.996 280.578,185.637 281.540,185.200 282.200 C 184.763 282.860,184.403 283.850,184.400 284.400 C 184.397 284.950,184.037 285.940,183.600 286.600 C 183.163 287.260,182.804 288.271,182.803 288.846 C 182.801 289.421,182.467 290.321,182.061 290.846 C 181.655 291.371,181.212 292.250,181.078 292.800 C 180.601 294.749,175.383 299.600,173.762 299.600 C 173.431 299.600,172.634 299.872,171.990 300.205 C 169.867 301.303,166.395 301.412,164.219 300.450 C 163.163 299.982,161.959 299.600,161.545 299.600 C 161.131 299.600,160.484 299.240,160.107 298.800 C 159.730 298.360,159.266 298.000,159.075 298.000 C 158.574 298.000,155.219 294.471,154.757 293.458 C 154.542 292.986,154.106 292.150,153.789 291.600 C 152.916 290.087,152.964 280.915,153.852 279.647 C 154.210 279.135,154.665 277.998,154.863 277.119 C 155.060 276.240,155.487 275.256,155.811 274.932 C 156.135 274.608,156.401 273.861,156.403 273.271 C 156.404 272.682,156.763 271.660,157.200 271.000 C 157.637 270.340,157.997 269.350,158.000 268.800 C 158.003 268.250,158.363 267.260,158.800 266.600 C 159.237 265.940,159.597 264.950,159.600 264.400 C 159.603 263.850,159.963 262.860,160.400 262.200 C 160.837 261.540,161.196 260.529,161.197 259.954 C 161.199 259.379,161.560 258.450,162.000 257.891 C 162.440 257.331,162.801 256.452,162.803 255.937 C 162.804 255.422,163.163 254.460,163.600 253.800 C 164.037 253.140,164.397 252.150,164.400 251.600 C 164.403 251.050,164.763 250.060,165.200 249.400 C 165.637 248.740,165.997 247.750,166.000 247.200 C 166.003 246.650,166.363 245.660,166.800 245.000 C 167.237 244.340,167.596 243.437,167.597 242.994 C 167.599 242.551,167.960 241.516,168.400 240.696 C 168.840 239.875,169.201 238.887,169.203 238.501 C 169.204 238.116,169.563 237.260,170.000 236.600 C 170.437 235.940,170.797 234.950,170.800 234.400 C 170.803 233.850,171.163 232.860,171.600 232.200 C 172.037 231.540,172.397 230.550,172.400 230.000 C 172.403 229.450,172.763 228.460,173.200 227.800 C 173.637 227.140,173.996 226.127,173.997 225.549 C 173.999 224.971,174.265 224.278,174.589 224.009 C 174.914 223.740,175.295 222.863,175.438 222.060 C 175.581 221.257,176.035 220.039,176.449 219.353 C 176.862 218.667,177.201 217.677,177.203 217.153 C 177.204 216.629,177.563 215.660,178.000 215.000 C 178.437 214.340,178.796 213.345,178.797 212.789 C 178.799 212.233,179.093 211.359,179.452 210.847 C 179.810 210.335,180.265 209.198,180.463 208.319 C 180.660 207.440,181.087 206.456,181.411 206.132 C 181.735 205.808,182.001 205.061,182.003 204.471 C 182.004 203.882,182.363 202.860,182.800 202.200 C 183.237 201.540,183.597 200.550,183.600 200.000 C 183.603 199.450,183.963 198.460,184.400 197.800 C 184.837 197.140,185.196 196.237,185.197 195.794 C 185.199 195.351,185.560 194.316,186.000 193.496 C 186.440 192.675,186.800 191.577,186.800 191.055 C 186.800 190.534,187.160 189.650,187.600 189.091 C 188.040 188.531,188.401 187.652,188.403 187.137 C 188.404 186.622,188.763 185.660,189.200 185.000 C 189.637 184.340,189.997 183.350,190.000 182.800 C 190.003 182.250,190.363 181.260,190.800 180.600 C 191.237 179.940,191.597 178.950,191.600 178.400 C 191.603 177.850,191.963 176.860,192.400 176.200 C 192.837 175.540,193.196 174.637,193.197 174.194 C 193.199 173.751,193.560 172.716,194.000 171.896 C 194.440 171.075,194.801 170.087,194.803 169.701 C 194.804 169.316,195.163 168.460,195.600 167.800 C 196.037 167.140,196.397 166.150,196.400 165.600 C 196.403 165.050,196.763 164.060,197.200 163.400 C 197.637 162.740,197.996 161.837,197.997 161.394 C 197.999 160.951,198.360 159.916,198.800 159.096 C 199.240 158.275,199.600 157.174,199.600 156.650 C 199.600 156.127,199.865 155.478,200.189 155.209 C 200.514 154.940,200.895 154.063,201.038 153.260 C 201.181 152.457,201.635 151.239,202.049 150.553 C 202.462 149.867,202.801 148.877,202.803 148.353 C 202.804 147.829,203.163 146.860,203.600 146.200 C 204.037 145.540,204.396 144.527,204.397 143.949 C 204.399 143.371,204.658 142.684,204.972 142.423 C 205.287 142.162,205.738 141.046,205.975 139.943 C 206.211 138.840,206.674 137.669,207.002 137.340 C 207.331 137.012,207.601 136.261,207.603 135.671 C 207.604 135.082,207.963 134.060,208.400 133.400 C 208.837 132.740,209.196 131.745,209.197 131.189 C 209.199 130.633,209.493 129.759,209.852 129.247 C 210.210 128.735,210.665 127.598,210.863 126.719 C 211.060 125.840,211.487 124.856,211.811 124.532 C 212.135 124.208,212.400 123.350,212.400 122.625 C 212.400 121.901,212.760 120.850,213.200 120.291 C 213.640 119.731,214.001 118.852,214.003 118.337 C 214.004 117.822,214.363 116.860,214.800 116.200 C 215.237 115.540,215.597 114.550,215.600 114.000 C 215.603 113.450,215.963 112.460,216.400 111.800 C 216.837 111.140,217.196 110.129,217.197 109.554 C 217.199 108.979,217.560 108.050,218.000 107.491 C 218.440 106.931,218.800 106.114,218.800 105.674 C 218.800 103.174,224.273 96.322,226.724 95.754 C 227.316 95.617,228.173 95.273,228.629 94.989 C 230.493 93.831,236.405 93.798,238.030 94.936 M133.675 128.639 C 134.272 128.947,135.094 129.200,135.502 129.200 C 136.567 129.200,141.200 132.621,141.200 133.407 C 141.200 133.635,141.560 134.130,142.000 134.507 C 142.440 134.884,142.800 135.440,142.800 135.742 C 142.800 136.045,143.175 136.768,143.633 137.351 C 144.767 138.792,144.664 147.796,143.500 148.958 C 143.115 149.343,142.800 150.019,142.800 150.462 C 142.800 150.991,135.174 158.900,120.500 173.590 C 108.235 185.868,97.870 196.279,97.467 196.725 C 96.742 197.527,97.011 197.814,118.967 219.765 C 131.195 231.990,141.200 242.101,141.200 242.233 C 141.200 242.366,141.560 242.931,142.000 243.491 C 142.440 244.050,142.800 244.813,142.800 245.187 C 142.800 245.560,143.180 247.077,143.645 248.559 L 144.491 251.252 143.645 253.462 C 143.180 254.677,142.800 256.022,142.800 256.452 C 142.800 258.381,137.333 264.400,135.581 264.400 C 135.370 264.400,134.525 264.760,133.704 265.200 C 132.546 265.821,131.448 266.000,128.800 266.000 C 126.152 266.000,125.054 265.821,123.896 265.200 C 123.075 264.760,122.230 264.400,122.019 264.400 C 121.808 264.400,120.974 263.951,120.165 263.402 C 118.228 262.087,54.400 198.223,54.400 197.600 C 54.400 196.976,119.828 131.512,121.765 130.198 C 122.574 129.649,123.509 129.200,123.844 129.200 C 124.179 129.200,124.846 128.987,125.326 128.726 C 127.499 127.547,131.483 127.505,133.675 128.639 M275.590 128.595 C 276.234 128.928,277.030 129.200,277.360 129.200 C 278.972 129.200,284.156 134.112,313.899 163.824 C 339.750 189.648,346.048 196.140,346.256 197.181 C 346.641 199.104,281.518 264.400,279.216 264.400 C 278.985 264.400,278.125 264.760,277.304 265.200 C 276.151 265.818,275.048 266.000,272.450 266.000 C 268.718 266.000,267.220 265.504,263.193 262.934 C 261.897 262.108,258.800 258.089,258.800 257.234 C 258.800 256.873,258.485 256.133,258.100 255.589 C 257.097 254.172,257.098 247.830,258.101 246.411 C 258.485 245.867,258.800 245.087,258.800 244.678 C 258.800 243.355,261.449 240.537,282.901 219.042 C 300.047 201.862,303.970 197.736,303.767 197.097 C 303.630 196.665,293.566 186.361,281.402 174.201 C 269.239 162.040,259.006 151.575,258.663 150.945 C 257.473 148.761,257.287 148.186,256.856 145.358 C 256.568 143.469,256.553 142.062,256.811 141.161 C 257.025 140.415,257.200 139.243,257.200 138.557 C 257.200 137.870,257.560 136.850,258.000 136.291 C 258.440 135.731,258.800 135.165,258.800 135.032 C 258.800 134.591,262.557 130.800,262.994 130.800 C 263.229 130.800,263.730 130.440,264.107 130.000 C 264.484 129.560,265.134 129.200,265.552 129.200 C 265.971 129.200,267.097 128.833,268.056 128.384 C 270.056 127.447,273.561 127.546,275.590 128.595 " stroke="none" fill="#f46454" fill-rule="evenodd"></path><path id="path2" d="M229.343 95.587 C 223.480 97.319,220.758 100.833,217.715 110.600 C 217.372 111.700,216.846 112.955,216.546 113.389 C 216.246 113.823,216.000 114.548,216.000 115.000 C 216.000 115.452,215.751 116.178,215.446 116.613 C 215.141 117.048,214.698 118.033,214.462 118.802 C 213.775 121.040,212.404 124.931,211.997 125.800 C 211.790 126.240,211.364 127.320,211.050 128.200 C 210.735 129.080,210.000 131.060,209.417 132.600 C 208.834 134.140,208.180 135.976,207.965 136.680 C 207.750 137.384,207.311 138.464,206.989 139.080 C 206.668 139.696,206.404 140.443,206.402 140.740 C 206.401 141.036,206.138 141.846,205.818 142.540 C 205.498 143.233,204.975 144.520,204.657 145.400 C 204.338 146.280,203.600 148.260,203.017 149.800 C 202.434 151.340,201.780 153.176,201.565 153.880 C 201.350 154.584,200.911 155.664,200.589 156.280 C 200.268 156.896,200.004 157.643,200.002 157.940 C 200.001 158.236,199.738 159.046,199.418 159.740 C 199.098 160.433,198.575 161.720,198.257 162.600 C 197.938 163.480,197.201 165.460,196.619 167.000 C 196.036 168.540,195.392 170.340,195.186 171.000 C 194.980 171.660,194.634 172.560,194.417 173.000 C 193.938 173.969,192.959 176.692,192.115 179.400 C 191.772 180.500,191.246 181.755,190.946 182.189 C 190.646 182.623,190.400 183.348,190.400 183.800 C 190.400 184.252,190.151 184.978,189.846 185.413 C 189.541 185.848,189.098 186.833,188.862 187.602 C 188.175 189.840,186.804 193.731,186.397 194.600 C 186.190 195.040,185.764 196.120,185.450 197.000 C 185.135 197.880,184.400 199.860,183.817 201.400 C 183.234 202.940,182.568 204.830,182.337 205.600 C 182.106 206.370,181.774 207.180,181.600 207.400 C 181.426 207.620,181.094 208.430,180.863 209.200 C 180.632 209.970,179.999 211.770,179.457 213.200 C 176.894 219.953,176.327 221.499,175.937 222.800 C 175.706 223.570,175.374 224.380,175.200 224.600 C 175.026 224.820,174.694 225.630,174.463 226.400 C 174.073 227.701,173.506 229.247,170.943 236.000 C 170.401 237.430,169.780 239.176,169.565 239.880 C 169.350 240.584,168.911 241.664,168.589 242.280 C 168.268 242.896,168.004 243.632,168.002 243.916 C 168.001 244.200,167.640 245.138,167.200 246.000 C 166.760 246.862,166.400 247.893,166.400 248.290 C 166.400 248.687,166.040 249.684,165.600 250.504 C 165.160 251.325,164.800 252.318,164.800 252.710 C 164.800 253.101,164.551 253.778,164.246 254.213 C 163.941 254.648,163.498 255.633,163.262 256.402 C 162.540 258.755,161.196 262.534,160.633 263.800 C 160.339 264.460,159.879 265.630,159.610 266.400 C 159.342 267.170,158.680 268.970,158.140 270.400 C 157.599 271.830,156.980 273.576,156.765 274.280 C 156.550 274.984,156.111 276.064,155.789 276.680 C 155.468 277.296,155.204 278.005,155.202 278.256 C 155.201 278.507,154.844 279.497,154.409 280.456 C 151.210 287.506,156.073 297.647,163.504 299.423 C 172.627 301.603,179.859 297.038,182.434 287.474 C 182.678 286.566,183.131 285.463,183.439 285.023 C 183.748 284.582,184.000 283.852,184.000 283.400 C 184.000 282.948,184.249 282.222,184.554 281.787 C 184.859 281.352,185.302 280.367,185.538 279.598 C 186.225 277.360,187.596 273.469,188.003 272.600 C 188.210 272.160,188.636 271.080,188.950 270.200 C 189.265 269.320,190.000 267.340,190.583 265.800 C 191.166 264.260,191.820 262.424,192.035 261.720 C 192.250 261.016,192.689 259.936,193.011 259.320 C 193.332 258.704,193.596 257.957,193.598 257.660 C 193.599 257.364,193.862 256.554,194.182 255.860 C 194.502 255.167,195.025 253.880,195.343 253.000 C 195.662 252.120,196.400 250.140,196.983 248.600 C 197.566 247.060,198.220 245.224,198.435 244.520 C 198.650 243.816,199.089 242.736,199.411 242.120 C 199.732 241.504,199.996 240.757,199.998 240.460 C 199.999 240.164,200.262 239.354,200.582 238.660 C 200.902 237.967,201.425 236.680,201.743 235.800 C 202.062 234.920,202.799 232.940,203.381 231.400 C 203.964 229.860,204.608 228.060,204.814 227.400 C 205.020 226.740,205.366 225.840,205.583 225.400 C 206.062 224.431,207.041 221.708,207.885 219.000 C 208.228 217.900,208.754 216.645,209.054 216.211 C 209.354 215.777,209.600 215.052,209.600 214.600 C 209.600 214.148,209.849 213.422,210.154 212.987 C 210.459 212.552,210.902 211.567,211.138 210.798 C 211.825 208.560,213.196 204.669,213.603 203.800 C 213.810 203.360,214.236 202.280,214.550 201.400 C 214.865 200.520,215.600 198.540,216.183 197.000 C 216.766 195.460,217.432 193.570,217.663 192.800 C 217.894 192.030,218.226 191.220,218.400 191.000 C 218.574 190.780,218.906 189.970,219.137 189.200 C 219.368 188.430,220.016 186.585,220.578 185.100 C 221.140 183.615,222.059 181.185,222.620 179.700 C 223.181 178.215,223.808 176.460,224.014 175.800 C 224.220 175.140,224.566 174.240,224.783 173.800 C 225.001 173.360,225.470 172.190,225.827 171.200 C 226.634 168.958,227.642 166.223,228.997 162.600 C 229.572 161.060,230.220 159.224,230.435 158.520 C 230.650 157.816,231.089 156.736,231.411 156.120 C 231.732 155.504,231.996 154.768,231.998 154.484 C 231.999 154.200,232.360 153.262,232.800 152.400 C 233.240 151.538,233.600 150.507,233.600 150.110 C 233.600 149.713,233.960 148.716,234.400 147.896 C 234.840 147.075,235.200 146.082,235.200 145.690 C 235.200 145.299,235.449 144.622,235.754 144.187 C 236.059 143.752,236.502 142.767,236.738 141.998 C 237.460 139.645,238.804 135.866,239.367 134.600 C 239.661 133.940,240.121 132.770,240.390 132.000 C 240.658 131.230,241.319 129.430,241.859 128.000 C 242.398 126.570,243.008 124.860,243.214 124.200 C 243.420 123.540,243.766 122.640,243.983 122.200 C 244.201 121.760,244.636 120.680,244.950 119.800 C 245.265 118.920,245.986 116.940,246.553 115.400 C 247.623 112.492,248.077 105.542,247.231 105.019 C 247.028 104.894,246.743 104.250,246.598 103.589 C 245.291 97.640,236.381 93.508,229.343 95.587 M236.959 96.054 C 241.186 96.865,245.538 100.790,246.271 104.454 C 246.399 105.094,246.660 105.714,246.852 105.832 C 247.952 106.512,246.918 113.508,245.139 117.426 C 244.732 118.321,244.400 119.266,244.400 119.528 C 244.400 119.789,244.040 120.675,243.600 121.496 C 243.160 122.316,242.800 123.306,242.800 123.696 C 242.800 124.085,242.440 125.075,242.000 125.896 C 241.560 126.716,241.200 127.668,241.200 128.009 C 241.200 128.351,240.840 129.337,240.400 130.200 C 239.960 131.063,239.600 132.092,239.600 132.486 C 239.600 132.880,239.240 133.875,238.800 134.696 C 238.360 135.516,238.000 136.466,238.000 136.805 C 238.000 137.144,237.753 137.777,237.451 138.211 C 237.149 138.645,236.765 139.630,236.598 140.400 C 236.430 141.170,235.957 142.427,235.547 143.194 C 235.136 143.961,234.800 144.906,234.800 145.296 C 234.800 145.685,234.440 146.675,234.000 147.496 C 233.560 148.316,233.200 149.306,233.200 149.696 C 233.200 150.085,232.840 151.075,232.400 151.896 C 231.960 152.716,231.600 153.616,231.600 153.896 C 231.600 154.175,231.240 155.075,230.800 155.896 C 230.360 156.716,230.000 157.706,230.000 158.096 C 230.000 158.485,229.640 159.475,229.200 160.296 C 228.760 161.116,228.400 162.106,228.400 162.496 C 228.400 162.885,228.040 163.875,227.600 164.696 C 227.160 165.516,226.800 166.560,226.800 167.014 C 226.800 167.468,226.624 168.016,226.409 168.231 C 226.194 168.446,225.674 169.607,225.254 170.811 C 223.817 174.934,223.488 175.802,222.744 177.444 C 222.335 178.348,222.000 179.462,222.000 179.920 C 222.000 180.378,221.825 180.861,221.610 180.994 C 221.396 181.126,220.951 182.082,220.622 183.117 C 219.566 186.440,218.474 189.368,217.831 190.600 C 217.487 191.260,217.204 192.116,217.202 192.501 C 217.201 192.887,216.840 193.875,216.400 194.696 C 215.960 195.516,215.600 196.468,215.600 196.809 C 215.600 197.151,215.240 198.137,214.800 199.000 C 214.360 199.863,214.000 200.851,214.000 201.196 C 214.000 201.540,213.753 202.177,213.451 202.611 C 213.149 203.045,212.772 204.030,212.612 204.800 C 212.452 205.570,212.093 206.563,211.813 207.006 C 211.534 207.449,211.167 208.439,210.999 209.206 C 210.831 209.973,210.357 211.227,209.947 211.994 C 209.536 212.761,209.200 213.706,209.200 214.096 C 209.200 214.485,208.840 215.475,208.400 216.296 C 207.960 217.116,207.600 218.066,207.600 218.405 C 207.600 218.744,207.353 219.377,207.051 219.811 C 206.749 220.245,206.365 221.230,206.198 222.000 C 206.030 222.770,205.557 224.027,205.147 224.794 C 204.736 225.561,204.400 226.506,204.400 226.896 C 204.400 227.285,204.040 228.275,203.600 229.096 C 203.160 229.916,202.800 230.906,202.800 231.296 C 202.800 231.685,202.440 232.675,202.000 233.496 C 201.560 234.316,201.200 235.216,201.200 235.496 C 201.200 235.775,200.840 236.675,200.400 237.496 C 199.960 238.316,199.600 239.313,199.600 239.710 C 199.600 240.107,199.240 241.138,198.800 242.000 C 198.360 242.862,198.000 243.846,198.000 244.186 C 198.000 244.525,197.640 245.475,197.200 246.296 C 196.760 247.116,196.400 248.160,196.400 248.614 C 196.400 249.068,196.224 249.616,196.009 249.831 C 195.794 250.046,195.274 251.207,194.854 252.411 C 193.417 256.534,193.088 257.402,192.344 259.044 C 191.935 259.948,191.600 260.984,191.600 261.345 C 191.600 261.707,191.240 262.675,190.800 263.496 C 190.360 264.316,190.000 265.385,190.000 265.870 C 190.000 266.356,189.825 266.861,189.610 266.994 C 189.396 267.126,188.964 268.082,188.651 269.117 C 188.338 270.153,187.794 271.540,187.443 272.200 C 187.092 272.860,186.804 273.765,186.802 274.211 C 186.801 274.657,186.553 275.377,186.251 275.811 C 185.949 276.245,185.565 277.230,185.398 278.000 C 185.230 278.770,184.757 280.027,184.347 280.794 C 183.936 281.561,183.600 282.506,183.600 282.896 C 183.600 283.285,183.240 284.275,182.800 285.096 C 182.360 285.916,182.000 286.866,182.000 287.205 C 182.000 287.544,181.753 288.177,181.451 288.611 C 181.149 289.045,180.768 290.030,180.603 290.800 C 180.439 291.570,180.064 292.470,179.769 292.800 C 179.475 293.130,178.584 294.155,177.791 295.077 C 172.933 300.724,163.377 300.811,157.788 295.260 C 156.824 294.304,155.822 292.864,155.561 292.060 C 155.300 291.257,154.842 290.245,154.543 289.811 C 153.156 287.796,153.953 282.422,156.449 276.956 C 156.862 276.052,157.200 275.016,157.200 274.655 C 157.200 274.293,157.560 273.325,158.000 272.504 C 158.440 271.684,158.800 270.732,158.800 270.391 C 158.800 270.049,159.160 269.063,159.600 268.200 C 160.040 267.337,160.400 266.308,160.400 265.914 C 160.400 265.520,160.760 264.525,161.200 263.704 C 161.640 262.884,162.000 261.934,162.000 261.595 C 162.000 261.256,162.247 260.623,162.549 260.189 C 162.851 259.755,163.235 258.770,163.402 258.000 C 163.570 257.230,164.043 255.973,164.453 255.206 C 164.864 254.439,165.200 253.494,165.200 253.104 C 165.200 252.715,165.560 251.725,166.000 250.904 C 166.440 250.084,166.800 249.094,166.800 248.704 C 166.800 248.315,167.160 247.325,167.600 246.504 C 168.040 245.684,168.400 244.784,168.400 244.504 C 168.400 244.225,168.760 243.325,169.200 242.504 C 169.640 241.684,170.000 240.694,170.000 240.304 C 170.000 239.915,170.360 238.925,170.800 238.104 C 171.240 237.284,171.600 236.244,171.600 235.795 C 171.600 235.346,171.849 234.622,172.154 234.187 C 172.459 233.752,172.899 232.767,173.132 231.998 C 173.366 231.229,173.999 229.430,174.540 228.000 C 175.080 226.570,175.745 224.770,176.017 224.000 C 176.289 223.230,176.846 221.860,177.256 220.956 C 177.665 220.052,178.000 218.938,178.000 218.480 C 178.000 218.022,178.175 217.539,178.390 217.406 C 178.604 217.274,179.049 216.318,179.378 215.283 C 180.434 211.960,181.526 209.032,182.169 207.800 C 182.513 207.140,182.796 206.284,182.798 205.899 C 182.799 205.513,183.160 204.525,183.600 203.704 C 184.040 202.884,184.400 201.932,184.400 201.591 C 184.400 201.249,184.760 200.263,185.200 199.400 C 185.640 198.537,186.000 197.549,186.000 197.204 C 186.000 196.860,186.247 196.223,186.549 195.789 C 186.851 195.355,187.228 194.370,187.388 193.600 C 187.548 192.830,187.907 191.837,188.187 191.394 C 188.466 190.951,188.833 189.961,189.001 189.194 C 189.169 188.427,189.643 187.173,190.053 186.406 C 190.464 185.639,190.800 184.694,190.800 184.304 C 190.800 183.915,191.160 182.925,191.600 182.104 C 192.040 181.284,192.400 180.334,192.400 179.995 C 192.400 179.656,192.647 179.023,192.949 178.589 C 193.251 178.155,193.635 177.170,193.802 176.400 C 193.970 175.630,194.443 174.373,194.853 173.606 C 195.264 172.839,195.600 171.894,195.600 171.504 C 195.600 171.115,195.960 170.125,196.400 169.304 C 196.840 168.484,197.200 167.494,197.200 167.104 C 197.200 166.715,197.560 165.725,198.000 164.904 C 198.440 164.084,198.800 163.184,198.800 162.904 C 198.800 162.625,199.160 161.725,199.600 160.904 C 200.040 160.084,200.400 159.087,200.400 158.690 C 200.400 158.293,200.760 157.262,201.200 156.400 C 201.640 155.538,202.000 154.554,202.000 154.214 C 202.000 153.875,202.360 152.925,202.800 152.104 C 203.240 151.284,203.600 150.240,203.600 149.786 C 203.600 149.332,203.776 148.784,203.991 148.569 C 204.206 148.354,204.726 147.193,205.146 145.989 C 206.583 141.866,206.912 140.998,207.656 139.356 C 208.065 138.452,208.400 137.416,208.400 137.055 C 208.400 136.693,208.760 135.725,209.200 134.904 C 209.640 134.084,210.000 133.015,210.000 132.530 C 210.000 132.044,210.175 131.539,210.390 131.406 C 210.604 131.274,211.036 130.318,211.349 129.283 C 211.662 128.247,212.206 126.860,212.557 126.200 C 212.908 125.540,213.196 124.635,213.198 124.189 C 213.199 123.743,213.447 123.023,213.749 122.589 C 214.051 122.155,214.435 121.170,214.602 120.400 C 214.770 119.630,215.243 118.373,215.653 117.606 C 216.064 116.839,216.400 115.894,216.400 115.504 C 216.400 115.115,216.760 114.125,217.200 113.304 C 217.640 112.484,218.000 111.534,218.000 111.195 C 218.000 110.856,218.247 110.223,218.549 109.789 C 218.851 109.355,219.228 108.370,219.388 107.600 C 219.548 106.830,219.904 105.840,220.179 105.400 C 220.454 104.960,220.887 103.965,221.141 103.190 C 221.614 101.744,224.747 98.000,225.482 98.000 C 225.708 98.000,226.342 97.646,226.892 97.213 C 227.442 96.781,228.682 96.307,229.646 96.160 C 230.611 96.013,231.670 95.736,232.000 95.544 C 232.330 95.351,233.050 95.286,233.600 95.398 C 234.150 95.510,235.661 95.805,236.959 96.054 M125.800 129.345 C 124.700 129.595,123.080 130.279,122.200 130.864 C 120.014 132.319,55.600 196.864,55.600 197.600 C 55.600 198.347,118.447 261.309,120.600 262.719 C 131.357 269.762,145.161 260.811,142.769 248.343 C 141.863 243.619,141.783 243.527,118.228 220.001 C 106.002 207.792,96.000 197.636,96.000 197.432 C 96.000 197.229,106.440 186.594,119.200 173.800 C 131.960 161.006,142.400 150.317,142.400 150.047 C 142.400 149.777,142.780 148.721,143.245 147.701 C 143.962 146.128,144.061 145.324,143.896 142.423 C 143.356 132.936,135.373 127.167,125.800 129.345 M267.360 129.388 C 259.362 131.346,254.832 141.831,258.713 149.400 C 259.748 151.417,263.366 155.214,281.398 173.200 C 293.197 184.970,303.407 195.290,304.087 196.134 L 305.322 197.669 282.916 220.134 C 266.125 236.970,260.302 243.051,259.681 244.400 C 253.536 257.732,267.873 270.743,280.200 263.021 C 282.463 261.603,345.600 198.251,345.600 197.398 C 345.600 196.407,281.885 132.644,279.200 130.948 C 275.990 128.920,271.622 128.344,267.360 129.388 M135.862 130.699 C 136.488 131.128,137.674 131.911,138.497 132.439 C 139.321 132.968,139.996 133.510,139.997 133.644 C 139.999 133.778,140.428 134.519,140.951 135.289 C 143.481 139.018,144.263 143.971,142.800 147.000 C 142.375 147.880,142.021 148.946,142.014 149.369 C 142.005 149.842,133.059 159.099,118.800 173.390 C 106.040 186.178,95.600 196.947,95.600 197.321 C 95.600 197.694,105.549 207.952,117.709 220.114 C 143.391 245.802,142.209 244.302,142.185 251.184 C 142.147 262.051,130.544 268.442,121.400 262.632 C 119.539 261.449,56.400 198.280,56.400 197.600 C 56.400 196.922,121.131 132.157,123.000 130.965 C 125.467 129.392,133.704 129.222,135.862 130.699 M278.609 131.212 C 280.704 132.588,345.200 196.692,345.200 197.398 C 345.200 197.950,281.319 261.663,279.800 262.626 C 271.898 267.632,260.812 262.942,259.160 253.894 C 258.473 250.132,259.097 245.660,260.531 244.077 C 260.899 243.670,261.200 243.150,261.200 242.922 C 261.200 242.694,271.190 232.515,283.400 220.302 C 295.610 208.089,305.600 197.809,305.600 197.457 C 305.600 197.105,295.434 186.644,283.009 174.210 C 257.116 148.300,258.000 149.403,258.000 143.015 C 258.000 140.361,258.179 139.263,258.800 138.104 C 259.240 137.284,259.600 136.417,259.600 136.179 C 259.600 135.524,263.250 131.906,264.817 131.008 C 268.205 129.067,275.508 129.175,278.609 131.212 " stroke="none" fill="#fcb4ac" fill-rule="evenodd"></path><path id="path3" d="M232.705 94.683 C 233.202 94.779,233.922 94.775,234.305 94.675 C 234.687 94.575,234.280 94.496,233.400 94.501 C 232.520 94.505,232.207 94.587,232.705 94.683 M247.740 109.200 C 247.740 111.070,247.809 111.835,247.893 110.900 C 247.977 109.965,247.977 108.435,247.893 107.500 C 247.809 106.565,247.740 107.330,247.740 109.200 M129.105 128.683 C 129.602 128.779,130.322 128.775,130.705 128.675 C 131.087 128.575,130.680 128.496,129.800 128.501 C 128.920 128.505,128.607 128.587,129.105 128.683 M268.866 128.751 C 268.554 128.949,269.218 129.016,270.466 128.913 C 273.397 128.671,273.795 128.468,271.400 128.438 C 270.300 128.424,269.160 128.565,268.866 128.751 M88.399 163.900 L 55.800 196.600 88.500 164.001 C 106.485 146.071,121.200 131.356,121.200 131.301 C 121.200 131.021,118.704 133.501,88.399 163.900 M313.600 164.600 C 331.089 182.090,345.488 196.400,345.598 196.400 C 345.708 196.400,331.489 182.090,314.000 164.600 C 296.511 147.110,282.112 132.800,282.002 132.800 C 281.892 132.800,296.111 147.110,313.600 164.600 M118.799 174.300 L 97.000 196.200 118.900 174.401 C 139.257 154.139,140.980 152.400,140.699 152.400 C 140.643 152.400,130.788 162.255,118.799 174.300 M282.200 174.400 C 294.078 186.280,303.887 196.000,303.997 196.000 C 304.107 196.000,294.478 186.280,282.600 174.400 C 270.722 162.520,260.913 152.800,260.803 152.800 C 260.693 152.800,270.322 162.520,282.200 174.400 M96.000 197.435 C 96.000 197.637,105.855 207.612,117.900 219.601 L 139.800 241.400 118.000 219.416 C 106.010 207.325,96.155 197.350,96.100 197.249 C 96.045 197.149,96.000 197.232,96.000 197.435 M87.400 230.400 C 104.779 247.780,119.088 262.000,119.198 262.000 C 119.308 262.000,105.179 247.780,87.800 230.400 C 70.421 213.020,56.112 198.800,56.002 198.800 C 55.892 198.800,70.021 213.020,87.400 230.400 M143.260 250.867 C 143.227 251.454,143.096 252.264,142.970 252.667 C 142.752 253.360,142.765 253.361,143.195 252.690 C 143.446 252.299,143.577 251.489,143.486 250.890 L 143.320 249.800 143.260 250.867 M127.500 265.489 C 128.215 265.578,129.385 265.578,130.100 265.489 C 130.815 265.401,130.230 265.328,128.800 265.328 C 127.370 265.328,126.785 265.401,127.500 265.489 M271.091 265.489 C 271.801 265.577,273.061 265.579,273.891 265.492 C 274.721 265.405,274.140 265.333,272.600 265.331 C 271.060 265.329,270.381 265.400,271.091 265.489 M177.578 296.300 L 176.200 297.800 177.700 296.422 C 179.096 295.138,179.384 294.800,179.078 294.800 C 179.012 294.800,178.337 295.475,177.578 296.300 M156.800 295.325 C 156.800 295.394,157.385 295.979,158.100 296.625 L 159.400 297.800 158.225 296.500 C 157.130 295.288,156.800 295.016,156.800 295.325 M164.883 300.060 C 165.167 300.240,166.390 300.376,167.600 300.362 C 170.258 300.332,169.842 300.121,166.683 299.896 C 165.389 299.804,164.594 299.876,164.883 300.060 " stroke="none" fill="#fcac9c" fill-rule="evenodd"></path><path id="path4" d="M230.429 94.268 C 229.895 94.382,229.085 94.706,228.629 94.989 C 228.173 95.273,227.316 95.617,226.724 95.754 C 224.273 96.322,218.800 103.174,218.800 105.674 C 218.800 106.114,218.440 106.931,218.000 107.491 C 217.560 108.050,217.199 108.979,217.197 109.554 C 217.196 110.129,216.837 111.140,216.400 111.800 C 215.963 112.460,215.603 113.450,215.600 114.000 C 215.597 114.550,215.237 115.540,214.800 116.200 C 214.363 116.860,214.004 117.822,214.003 118.337 C 214.001 118.852,213.640 119.731,213.200 120.291 C 212.760 120.850,212.400 121.901,212.400 122.625 C 212.400 123.350,212.135 124.208,211.811 124.532 C 211.487 124.856,211.060 125.840,210.863 126.719 C 210.665 127.598,210.210 128.735,209.852 129.247 C 209.493 129.759,209.199 130.633,209.197 131.189 C 209.196 131.745,208.837 132.740,208.400 133.400 C 207.963 134.060,207.604 135.082,207.603 135.671 C 207.601 136.261,207.331 137.012,207.002 137.340 C 206.674 137.669,206.211 138.840,205.975 139.943 C 205.738 141.046,205.287 142.162,204.972 142.423 C 204.658 142.684,204.399 143.371,204.397 143.949 C 204.396 144.527,204.037 145.540,203.600 146.200 C 203.163 146.860,202.804 147.829,202.803 148.353 C 202.801 148.877,202.462 149.867,202.049 150.553 C 201.635 151.239,201.181 152.457,201.038 153.260 C 200.895 154.063,200.514 154.940,200.189 155.209 C 199.865 155.478,199.600 156.127,199.600 156.650 C 199.600 157.174,199.240 158.275,198.800 159.096 C 198.360 159.916,197.999 160.951,197.997 161.394 C 197.996 161.837,197.637 162.740,197.200 163.400 C 196.763 164.060,196.403 165.050,196.400 165.600 C 196.397 166.150,196.037 167.140,195.600 167.800 C 195.163 168.460,194.804 169.316,194.803 169.701 C 194.801 170.087,194.440 171.075,194.000 171.896 C 193.560 172.716,193.199 173.751,193.197 174.194 C 193.196 174.637,192.837 175.540,192.400 176.200 C 191.963 176.860,191.603 177.850,191.600 178.400 C 191.597 178.950,191.237 179.940,190.800 180.600 C 190.363 181.260,190.003 182.250,190.000 182.800 C 189.997 183.350,189.637 184.340,189.200 185.000 C 188.763 185.660,188.404 186.622,188.403 187.137 C 188.401 187.652,188.040 188.531,187.600 189.091 C 187.160 189.650,186.800 190.534,186.800 191.055 C 186.800 191.577,186.440 192.675,186.000 193.496 C 185.560 194.316,185.199 195.351,185.197 195.794 C 185.196 196.237,184.837 197.140,184.400 197.800 C 183.963 198.460,183.603 199.450,183.600 200.000 C 183.597 200.550,183.237 201.540,182.800 202.200 C 182.363 202.860,182.004 203.882,182.003 204.471 C 182.001 205.061,181.735 205.808,181.411 206.132 C 181.087 206.456,180.660 207.440,180.463 208.319 C 180.265 209.198,179.810 210.335,179.452 210.847 C 179.093 211.359,178.799 212.233,178.797 212.789 C 178.796 213.345,178.437 214.340,178.000 215.000 C 177.563 215.660,177.204 216.629,177.203 217.153 C 177.201 217.677,176.862 218.667,176.449 219.353 C 176.035 220.039,175.581 221.257,175.438 222.060 C 175.295 222.863,174.914 223.740,174.589 224.009 C 174.265 224.278,173.999 224.971,173.997 225.549 C 173.996 226.127,173.637 227.140,173.200 227.800 C 172.763 228.460,172.403 229.450,172.400 230.000 C 172.397 230.550,172.037 231.540,171.600 232.200 C 171.163 232.860,170.803 233.850,170.800 234.400 C 170.797 234.950,170.437 235.940,170.000 236.600 C 169.563 237.260,169.204 238.116,169.203 238.501 C 169.201 238.887,168.840 239.875,168.400 240.696 C 167.960 241.516,167.599 242.551,167.597 242.994 C 167.596 243.437,167.237 244.340,166.800 245.000 C 166.363 245.660,166.003 246.650,166.000 247.200 C 165.997 247.750,165.637 248.740,165.200 249.400 C 164.763 250.060,164.403 251.050,164.400 251.600 C 164.397 252.150,164.037 253.140,163.600 253.800 C 163.163 254.460,162.804 255.422,162.803 255.937 C 162.801 256.452,162.440 257.331,162.000 257.891 C 161.560 258.450,161.199 259.379,161.197 259.954 C 161.196 260.529,160.837 261.540,160.400 262.200 C 159.963 262.860,159.603 263.850,159.600 264.400 C 159.597 264.950,159.237 265.940,158.800 266.600 C 158.363 267.260,158.003 268.250,158.000 268.800 C 157.997 269.350,157.637 270.340,157.200 271.000 C 156.763 271.660,156.404 272.682,156.403 273.271 C 156.401 273.861,156.135 274.608,155.811 274.932 C 155.487 275.256,155.060 276.240,154.863 277.119 C 154.665 277.998,154.210 279.135,153.852 279.647 C 152.964 280.915,152.916 290.087,153.789 291.600 C 154.106 292.150,154.542 292.986,154.757 293.458 C 155.219 294.471,158.574 298.000,159.075 298.000 C 159.266 298.000,159.730 298.360,160.107 298.800 C 160.484 299.240,161.131 299.600,161.545 299.600 C 161.959 299.600,163.163 299.982,164.219 300.450 C 166.395 301.412,169.867 301.303,171.990 300.205 C 172.634 299.872,173.431 299.600,173.762 299.600 C 175.383 299.600,180.601 294.749,181.078 292.800 C 181.212 292.250,181.655 291.371,182.061 290.846 C 182.467 290.321,182.801 289.421,182.803 288.846 C 182.804 288.271,183.163 287.260,183.600 286.600 C 184.037 285.940,184.397 284.950,184.400 284.400 C 184.403 283.850,184.763 282.860,185.200 282.200 C 185.637 281.540,185.996 280.578,185.997 280.063 C 185.999 279.548,186.360 278.669,186.800 278.109 C 187.240 277.550,187.600 276.499,187.600 275.775 C 187.600 275.050,187.865 274.192,188.189 273.868 C 188.513 273.544,188.940 272.560,189.137 271.681 C 189.335 270.802,189.790 269.665,190.148 269.153 C 190.507 268.641,190.801 267.767,190.803 267.211 C 190.804 266.655,191.163 265.660,191.600 265.000 C 192.037 264.340,192.396 263.318,192.397 262.729 C 192.399 262.139,192.669 261.388,192.998 261.060 C 193.326 260.731,193.789 259.560,194.025 258.457 C 194.262 257.354,194.713 256.238,195.028 255.977 C 195.342 255.716,195.601 255.029,195.603 254.451 C 195.604 253.873,195.963 252.860,196.400 252.200 C 196.837 251.540,197.196 250.571,197.197 250.047 C 197.199 249.523,197.538 248.533,197.951 247.847 C 198.365 247.161,198.819 245.943,198.962 245.140 C 199.105 244.337,199.486 243.460,199.811 243.191 C 200.135 242.922,200.400 242.273,200.400 241.750 C 200.400 241.226,200.760 240.125,201.200 239.304 C 201.640 238.484,202.001 237.449,202.003 237.006 C 202.004 236.563,202.363 235.660,202.800 235.000 C 203.237 234.340,203.597 233.350,203.600 232.800 C 203.603 232.250,203.963 231.260,204.400 230.600 C 204.837 229.940,205.196 229.084,205.197 228.699 C 205.199 228.313,205.560 227.325,206.000 226.504 C 206.440 225.684,206.801 224.649,206.803 224.206 C 206.804 223.763,207.163 222.860,207.600 222.200 C 208.037 221.540,208.397 220.550,208.400 220.000 C 208.403 219.450,208.763 218.460,209.200 217.800 C 209.637 217.140,209.997 216.150,210.000 215.600 C 210.003 215.050,210.363 214.060,210.800 213.400 C 211.237 212.740,211.596 211.778,211.597 211.263 C 211.599 210.748,211.960 209.869,212.400 209.309 C 212.840 208.750,213.200 207.866,213.200 207.345 C 213.200 206.823,213.560 205.725,214.000 204.904 C 214.440 204.084,214.801 203.049,214.803 202.606 C 214.804 202.163,215.163 201.260,215.600 200.600 C 216.037 199.940,216.397 198.950,216.400 198.400 C 216.403 197.850,216.763 196.860,217.200 196.200 C 217.637 195.540,217.996 194.518,217.997 193.929 C 217.999 193.339,218.265 192.592,218.589 192.268 C 218.913 191.944,219.340 190.960,219.537 190.081 C 219.735 189.202,220.190 188.065,220.548 187.553 C 220.907 187.041,221.201 186.167,221.203 185.611 C 221.204 185.055,221.563 184.060,222.000 183.400 C 222.437 182.740,222.796 181.771,222.797 181.247 C 222.799 180.723,223.138 179.733,223.551 179.047 C 223.965 178.361,224.419 177.143,224.562 176.340 C 224.705 175.537,225.086 174.660,225.411 174.391 C 225.735 174.122,226.001 173.429,226.003 172.851 C 226.004 172.273,226.363 171.260,226.800 170.600 C 227.237 169.940,227.597 168.950,227.600 168.400 C 227.603 167.850,227.963 166.860,228.400 166.200 C 228.837 165.540,229.197 164.550,229.200 164.000 C 229.203 163.450,229.563 162.460,230.000 161.800 C 230.437 161.140,230.796 160.284,230.797 159.899 C 230.799 159.513,231.160 158.525,231.600 157.704 C 232.040 156.884,232.401 155.849,232.403 155.406 C 232.404 154.963,232.763 154.060,233.200 153.400 C 233.637 152.740,233.997 151.750,234.000 151.200 C 234.003 150.650,234.363 149.660,234.800 149.000 C 235.237 148.340,235.597 147.350,235.600 146.800 C 235.603 146.250,235.963 145.260,236.400 144.600 C 236.837 143.940,237.196 142.978,237.197 142.463 C 237.199 141.948,237.560 141.069,238.000 140.509 C 238.440 139.950,238.801 139.021,238.803 138.446 C 238.804 137.871,239.163 136.860,239.600 136.200 C 240.037 135.540,240.397 134.550,240.400 134.000 C 240.403 133.450,240.763 132.460,241.200 131.800 C 241.637 131.140,241.997 130.150,242.000 129.600 C 242.003 129.050,242.363 128.060,242.800 127.400 C 243.237 126.740,243.596 125.718,243.597 125.129 C 243.599 124.539,243.865 123.792,244.189 123.468 C 244.513 123.144,244.940 122.160,245.137 121.281 C 245.335 120.402,245.790 119.265,246.148 118.753 C 246.507 118.241,246.801 117.367,246.803 116.811 C 246.804 116.255,247.163 115.260,247.600 114.600 C 249.442 111.818,248.143 102.121,245.734 100.680 C 245.441 100.504,245.200 100.175,245.200 99.949 C 245.200 99.454,243.003 97.200,242.520 97.200 C 242.332 97.200,241.870 96.840,241.493 96.400 C 241.116 95.960,240.396 95.600,239.893 95.600 C 239.390 95.600,238.552 95.301,238.030 94.936 C 237.064 94.260,232.403 93.850,230.429 94.268 M237.200 95.283 C 246.244 97.954,250.110 106.006,246.764 115.203 C 246.085 117.071,245.276 119.390,244.966 120.356 C 244.657 121.322,244.242 122.312,244.044 122.556 C 243.845 122.800,243.494 123.630,243.263 124.400 C 243.032 125.170,242.369 127.060,241.788 128.600 C 241.208 130.140,240.489 132.120,240.190 133.000 C 239.892 133.880,239.082 136.040,238.391 137.800 C 237.701 139.560,236.988 141.590,236.807 142.311 C 236.627 143.033,236.300 143.843,236.081 144.111 C 235.862 144.380,235.494 145.230,235.263 146.000 C 235.032 146.770,234.369 148.660,233.788 150.200 C 233.208 151.740,232.479 153.790,232.169 154.756 C 231.858 155.722,231.442 156.712,231.244 156.956 C 231.045 157.200,230.694 158.030,230.463 158.800 C 230.232 159.570,229.572 161.460,228.997 163.000 C 227.363 167.369,226.400 170.048,225.778 171.956 C 225.462 172.922,225.042 173.912,224.844 174.156 C 224.645 174.400,224.294 175.230,224.063 176.000 C 223.832 176.770,223.172 178.660,222.597 180.200 C 220.963 184.569,220.000 187.248,219.378 189.156 C 219.062 190.122,218.642 191.112,218.444 191.356 C 218.245 191.600,217.894 192.430,217.663 193.200 C 217.432 193.970,216.769 195.860,216.188 197.400 C 215.608 198.940,214.889 200.920,214.590 201.800 C 214.292 202.680,213.482 204.840,212.791 206.600 C 212.101 208.360,211.399 210.341,211.232 211.003 C 211.065 211.665,210.721 212.565,210.467 213.003 C 210.213 213.441,209.755 214.520,209.449 215.400 C 207.187 221.897,205.868 225.458,205.599 225.800 C 205.425 226.020,205.094 226.830,204.863 227.600 C 204.632 228.370,203.969 230.260,203.388 231.800 C 202.808 233.340,202.096 235.320,201.806 236.200 C 201.516 237.080,200.992 238.340,200.642 239.000 C 200.292 239.660,200.004 240.565,200.002 241.011 C 200.001 241.457,199.751 242.178,199.446 242.613 C 199.141 243.048,198.701 244.033,198.468 244.802 C 198.234 245.571,197.569 247.460,196.988 249.000 C 196.408 250.540,195.696 252.520,195.406 253.400 C 195.116 254.280,194.592 255.540,194.242 256.200 C 193.892 256.860,193.604 257.765,193.602 258.211 C 193.601 258.657,193.351 259.378,193.046 259.813 C 192.741 260.248,192.301 261.233,192.068 262.002 C 191.834 262.771,191.169 264.660,190.588 266.200 C 190.008 267.740,189.294 269.743,189.000 270.651 C 188.707 271.560,188.275 272.640,188.040 273.051 C 187.595 273.832,186.203 277.727,185.629 279.800 C 185.446 280.460,185.006 281.540,184.651 282.200 C 184.295 282.860,184.004 283.619,184.002 283.886 C 184.001 284.154,183.736 284.964,183.414 285.686 C 183.092 286.409,182.351 288.238,181.767 289.751 C 178.465 298.302,171.508 301.988,163.217 299.579 C 154.183 296.953,150.945 286.682,155.846 276.200 C 156.155 275.540,156.577 274.460,156.784 273.800 C 156.991 273.140,157.634 271.340,158.213 269.800 C 158.793 268.260,159.511 266.280,159.810 265.400 C 160.108 264.520,160.918 262.360,161.609 260.600 C 162.299 258.840,163.012 256.810,163.193 256.089 C 163.373 255.367,163.700 254.557,163.919 254.289 C 164.138 254.020,164.506 253.170,164.737 252.400 C 164.968 251.630,165.631 249.740,166.212 248.200 C 166.792 246.660,167.521 244.610,167.831 243.644 C 168.142 242.678,168.558 241.688,168.756 241.444 C 168.955 241.200,169.306 240.370,169.537 239.600 C 169.768 238.830,170.428 236.940,171.003 235.400 C 172.637 231.031,173.600 228.352,174.222 226.444 C 174.538 225.478,174.958 224.488,175.156 224.244 C 175.355 224.000,175.706 223.170,175.937 222.400 C 176.168 221.630,176.828 219.740,177.403 218.200 C 179.037 213.831,180.000 211.152,180.622 209.244 C 180.938 208.278,181.358 207.288,181.556 207.044 C 181.755 206.800,182.106 205.970,182.337 205.200 C 182.568 204.430,183.231 202.540,183.812 201.000 C 184.392 199.460,185.111 197.480,185.410 196.600 C 185.708 195.720,186.518 193.560,187.209 191.800 C 187.899 190.040,188.601 188.059,188.768 187.397 C 188.935 186.735,189.279 185.835,189.533 185.397 C 189.787 184.959,190.245 183.880,190.551 183.000 C 192.813 176.503,194.132 172.942,194.401 172.600 C 194.575 172.380,194.906 171.570,195.137 170.800 C 195.368 170.030,196.031 168.140,196.612 166.600 C 197.192 165.060,197.904 163.080,198.194 162.200 C 198.484 161.320,199.008 160.060,199.358 159.400 C 199.708 158.740,199.996 157.835,199.998 157.389 C 199.999 156.943,200.249 156.222,200.554 155.787 C 200.859 155.352,201.299 154.367,201.532 153.598 C 201.766 152.829,202.431 150.940,203.012 149.400 C 203.592 147.860,204.304 145.880,204.594 145.000 C 204.884 144.120,205.408 142.860,205.758 142.200 C 206.108 141.540,206.396 140.635,206.398 140.189 C 206.399 139.743,206.649 139.022,206.954 138.587 C 207.259 138.152,207.699 137.167,207.932 136.398 C 208.166 135.629,208.831 133.740,209.412 132.200 C 209.992 130.660,210.706 128.657,211.000 127.749 C 211.293 126.840,211.725 125.760,211.960 125.349 C 212.442 124.504,213.864 120.473,214.380 118.489 C 214.567 117.767,214.900 116.957,215.119 116.689 C 215.338 116.420,215.702 115.570,215.929 114.800 C 216.156 114.030,216.909 111.960,217.603 110.200 C 218.297 108.440,219.012 106.460,219.193 105.800 C 221.372 97.852,229.608 93.042,237.200 95.283 M127.600 127.957 C 126.830 128.119,125.807 128.465,125.326 128.726 C 124.846 128.987,124.179 129.200,123.844 129.200 C 123.509 129.200,122.574 129.649,121.765 130.198 C 119.828 131.512,54.400 196.976,54.400 197.600 C 54.400 198.223,118.228 262.087,120.165 263.402 C 120.974 263.951,121.808 264.400,122.019 264.400 C 122.230 264.400,123.075 264.760,123.896 265.200 C 125.054 265.821,126.152 266.000,128.800 266.000 C 131.448 266.000,132.546 265.821,133.704 265.200 C 134.525 264.760,135.370 264.400,135.581 264.400 C 137.333 264.400,142.800 258.381,142.800 256.452 C 142.800 256.022,143.180 254.677,143.645 253.462 L 144.491 251.252 143.645 248.559 C 143.180 247.077,142.800 245.560,142.800 245.187 C 142.800 244.813,142.440 244.050,142.000 243.491 C 141.560 242.931,141.200 242.366,141.200 242.233 C 141.200 242.101,131.195 231.990,118.967 219.765 C 97.011 197.814,96.742 197.527,97.467 196.725 C 97.870 196.279,108.235 185.868,120.500 173.590 C 135.174 158.900,142.800 150.991,142.800 150.462 C 142.800 150.019,143.115 149.343,143.500 148.958 C 144.664 147.796,144.767 138.792,143.633 137.351 C 143.175 136.768,142.800 136.045,142.800 135.742 C 142.800 135.440,142.440 134.884,142.000 134.507 C 141.560 134.130,141.200 133.635,141.200 133.407 C 141.200 132.621,136.567 129.200,135.502 129.200 C 135.094 129.200,134.272 128.947,133.675 128.639 C 132.264 127.909,129.370 127.585,127.600 127.957 M268.056 128.384 C 267.097 128.833,265.971 129.200,265.552 129.200 C 265.134 129.200,264.484 129.560,264.107 130.000 C 263.730 130.440,263.229 130.800,262.994 130.800 C 262.557 130.800,258.800 134.591,258.800 135.032 C 258.800 135.165,258.440 135.731,258.000 136.291 C 257.560 136.850,257.200 137.870,257.200 138.557 C 257.200 139.243,257.025 140.415,256.811 141.161 C 256.553 142.062,256.568 143.469,256.856 145.358 C 257.287 148.186,257.473 148.761,258.663 150.945 C 259.006 151.575,269.239 162.040,281.402 174.201 C 293.566 186.361,303.630 196.665,303.767 197.097 C 303.970 197.736,300.047 201.862,282.901 219.042 C 261.449 240.537,258.800 243.355,258.800 244.678 C 258.800 245.087,258.485 245.867,258.101 246.411 C 257.098 247.830,257.097 254.172,258.100 255.589 C 258.485 256.133,258.800 256.873,258.800 257.234 C 258.800 258.089,261.897 262.108,263.193 262.934 C 267.220 265.504,268.718 266.000,272.450 266.000 C 275.048 266.000,276.151 265.818,277.304 265.200 C 278.125 264.760,278.985 264.400,279.216 264.400 C 281.518 264.400,346.641 199.104,346.256 197.181 C 346.048 196.140,339.750 189.648,313.899 163.824 C 284.156 134.112,278.972 129.200,277.360 129.200 C 277.030 129.200,276.234 128.928,275.590 128.595 C 273.561 127.546,270.056 127.447,268.056 128.384 M133.076 129.062 C 141.922 131.131,146.602 140.817,142.774 149.135 C 141.633 151.613,139.960 153.390,118.926 174.456 C 106.484 186.917,96.371 197.310,96.452 197.552 C 96.533 197.794,106.508 207.939,118.618 220.096 C 131.809 233.338,140.969 242.841,141.466 243.800 C 142.778 246.333,143.800 251.335,143.281 252.683 C 143.044 253.297,142.729 254.430,142.582 255.200 C 140.795 264.528,128.032 268.546,119.800 262.372 C 115.698 259.296,55.600 198.662,55.600 197.600 C 55.600 196.518,118.644 132.964,121.800 130.864 C 123.260 129.893,127.433 128.562,129.400 128.440 C 129.840 128.412,131.494 128.692,133.076 129.062 M275.101 129.069 C 276.566 129.438,278.583 130.274,279.583 130.929 C 281.948 132.478,345.448 195.927,345.783 197.077 C 346.221 198.576,281.106 263.424,278.400 264.183 C 277.850 264.337,276.787 264.741,276.037 265.080 C 267.191 269.084,255.507 257.431,258.415 247.502 C 259.721 243.040,259.919 242.816,283.282 219.426 L 305.231 197.453 282.467 174.626 C 256.238 148.325,257.477 149.879,257.430 143.200 C 257.392 137.922,258.190 135.898,261.600 132.616 C 263.234 131.043,265.424 129.702,266.857 129.395 C 267.596 129.237,268.470 128.954,268.800 128.766 C 269.750 128.225,272.211 128.343,275.101 129.069 " stroke="none" fill="#f49a91" fill-rule="evenodd"></path></g></svg>